<?xml version="1.0" standalone="no"?>
<!DOCTYPE svg PUBLIC "-//W3C//DTD SVG 20010904//EN"
 "http://www.w3.org/TR/2001/REC-SVG-20010904/DTD/svg10.dtd">
<svg version="1.0" xmlns="http://www.w3.org/2000/svg"
 width="1080.000000pt" height="1080.000000pt" viewBox="0 0 1080.000000 1080.000000"
 preserveAspectRatio="xMidYMid meet">

<g transform="translate(0.000000,1080.000000) scale(0.100000,-0.100000)"
fill="#000000" stroke="none">
<path d="M0 5400 l0 -5400 5400 0 5400 0 0 5400 0 5400 -5400 0 -5400 0 0
-5400z m6290 3386 c0 -8 -13 -19 -30 -25 -25 -8 -30 -7 -30 5 0 8 4 13 9 10 5
-3 14 1 21 9 16 19 30 19 30 1z m94 8 c25 -10 19 -22 -9 -16 -14 2 -25 8 -25
13 0 10 12 11 34 3z m-274 -29 c0 -25 14 -33 25 -15 4 6 12 9 18 8 7 -1 23 4
35 11 13 7 26 10 29 8 3 -3 -14 -15 -36 -27 -47 -23 -46 -40 2 -39 25 0 28 2
13 8 -18 7 -18 8 -2 14 23 9 31 -16 14 -50 -16 -33 -58 -42 -58 -12 0 10 -7
24 -15 31 -41 34 -52 51 -48 69 8 27 23 24 23 -6z m-273 -27 c-3 -8 -6 -5 -6
6 -1 11 2 17 5 13 3 -3 4 -12 1 -19z m531 -3 c-3 -14 -1 -25 3 -25 5 0 9 -7 9
-16 0 -9 -7 -14 -17 -12 -12 2 -20 16 -24 41 -5 32 -3 37 14 37 15 0 18 -5 15
-25z m251 -37 c1 -37 6 -65 14 -70 9 -6 9 -8 0 -8 -7 0 -13 -7 -13 -16 0 -28
-19 -4 -26 34 -9 50 -23 75 -39 69 -7 -3 -18 0 -24 6 -9 9 -14 8 -21 -3 -6 -9
-10 -10 -10 -3 0 19 40 37 53 24 16 -16 24 -14 30 9 3 11 12 20 20 20 11 0 15
-15 16 -62z m-334 32 c3 -5 -1 -10 -9 -10 -9 0 -16 5 -16 10 0 6 4 10 9 10 6
0 13 -4 16 -10z m167 -18 c-2 -12 1 -30 7 -40 7 -14 6 -24 -3 -38 -8 -10 -12
-24 -9 -31 8 -21 33 -15 33 7 0 11 5 20 10 20 6 0 10 8 10 19 0 21 25 47 34
33 2 -4 3 -17 1 -28 -2 -10 -4 -22 -4 -26 -1 -5 -7 -8 -15 -8 -8 0 -17 -7 -20
-16 -4 -12 -1 -14 13 -9 28 8 34 -9 11 -30 -29 -26 -25 -53 10 -73 34 -20 37
-34 13 -61 -55 -61 -55 -73 1 -40 43 25 45 22 11 -17 -17 -20 -24 -36 -20 -51
7 -28 0 -29 -28 -2 -20 18 -22 30 -22 112 0 89 -1 94 -34 140 -19 26 -38 47
-43 47 -5 0 -7 4 -4 9 4 5 0 11 -6 14 -9 3 -6 12 11 30 13 14 21 33 18 41 -7
16 2 28 17 23 6 -2 10 -13 8 -25z m-403 -36 c-9 -8 -10 -7 -5 7 3 10 7 24 7
30 1 7 3 4 6 -7 3 -10 -1 -23 -8 -30z m-295 -13 c-9 -36 -12 -39 -20 -19 -7
20 1 46 16 46 6 0 8 -11 4 -27z m81 -82 c-4 -28 -11 -53 -16 -57 -11 -7 -12
-51 0 -58 13 -9 3 -93 -20 -174 -12 -40 -18 -76 -14 -80 4 -4 10 -1 12 6 3 7
11 18 19 25 8 7 21 18 29 25 7 6 20 12 28 12 20 0 28 38 21 97 -5 38 -4 46 6
36 7 -6 13 -24 14 -40 1 -15 5 -34 10 -41 8 -13 2 -84 -11 -125 -4 -16 -2 -17
16 -8 12 7 21 20 21 31 0 27 21 70 35 70 6 0 16 -5 22 -11 7 -7 13 -7 17 -1 3
6 -1 18 -10 27 -15 15 -15 21 7 76 13 32 27 59 32 59 5 0 6 -8 3 -17 -13 -47
-18 -113 -7 -113 6 0 11 -9 11 -19 0 -11 4 -22 10 -26 9 -6 1 -37 -22 -83 -10
-19 -9 -25 2 -32 8 -6 17 -10 20 -10 6 0 23 40 40 98 15 47 34 70 45 52 4 -6
2 -16 -4 -23 -5 -7 -8 -26 -7 -42 2 -16 -1 -37 -7 -47 -13 -21 -3 -35 15 -20
9 7 19 6 32 -4 15 -10 16 -14 5 -15 -10 0 -10 -2 -1 -6 6 -2 12 -9 12 -14 0
-4 -6 -6 -14 -3 -8 3 -16 -2 -18 -11 -3 -15 -6 -14 -30 4 -23 19 -30 20 -48 9
-11 -7 -20 -19 -20 -26 0 -7 -4 -11 -10 -7 -5 3 -7 12 -3 20 3 8 0 15 -6 15
-6 0 -11 7 -11 15 0 10 -10 15 -30 15 -20 0 -30 -5 -30 -15 0 -11 -8 -15 -27
-13 -24 3 -28 0 -25 -21 3 -33 -16 -43 -46 -23 -20 13 -25 13 -33 1 -5 -8 -9
-10 -9 -5 0 5 -11 -1 -24 -13 -17 -16 -32 -22 -48 -18 -13 3 -32 -1 -42 -9
-11 -8 -37 -14 -58 -14 -21 0 -38 -5 -38 -10 0 -17 -79 -46 -145 -55 -33 -4
-65 -11 -72 -17 -6 -5 -37 -10 -68 -11 -51 -2 -59 1 -82 27 -21 24 -24 37 -20
71 4 44 41 92 64 87 8 -2 13 7 13 23 0 16 4 24 10 20 13 -8 3 -43 -17 -63 -10
-11 -11 -17 -2 -28 15 -18 29 -18 29 1 0 18 27 20 33 3 3 -10 9 -8 24 5 11 9
23 14 27 10 4 -4 16 3 26 17 15 20 21 22 33 12 9 -8 18 -9 21 -4 3 6 0 15 -8
21 -9 7 -11 23 -7 48 8 50 31 56 31 8 0 -35 2 -37 25 -31 14 4 35 2 46 -5 27
-14 56 -4 41 14 -8 9 -7 24 3 52 8 22 14 50 15 62 0 24 15 39 24 24 4 -5 2
-12 -4 -16 -11 -7 -3 -78 11 -105 12 -24 22 33 17 98 -8 89 12 128 52 102 13
-9 13 -12 -2 -24 -19 -14 -23 -67 -9 -116 6 -23 8 -23 14 -6 11 27 29 143 31
196 1 25 7 56 13 70 18 42 33 95 33 115 0 10 3 16 6 12 3 -3 3 -29 -1 -56z
m136 26 c-8 -8 -11 -7 -11 4 0 9 3 19 7 23 4 4 9 2 11 -4 3 -7 -1 -17 -7 -23z
m316 11 c-3 -8 -6 -5 -6 6 -1 11 2 17 5 13 3 -3 4 -12 1 -19z m83 3 c0 -5 -7
-11 -15 -15 -15 -5 -20 5 -8 17 9 10 23 9 23 -2z m-670 -46 c-7 -9 -15 -13
-18 -10 -3 2 1 11 8 20 7 9 15 13 18 10 3 -2 -1 -11 -8 -20z m363 -2 c2 -5 -9
-18 -24 -31 -30 -24 -38 -16 -23 22 6 16 39 22 47 9z m639 -38 c-6 -50 -15
-49 -25 3 -6 28 -4 33 11 30 12 -2 16 -11 14 -33z m-116 -23 c-11 -10 -15 4
-8 28 l7 25 3 -23 c2 -13 1 -26 -2 -30z m-658 30 c-21 -49 -44 -92 -50 -92
-16 0 -7 42 14 70 19 27 45 42 36 22z m53 -84 c-9 -20 -10 -18 -10 17 0 31 2
36 9 23 6 -10 7 -25 1 -40z m829 43 c0 -6 -4 -13 -10 -16 -5 -3 -10 1 -10 9 0
9 5 16 10 16 6 0 10 -4 10 -9z m-200 -37 c0 -13 -4 -24 -9 -24 -10 0 -21 47
-13 54 10 11 22 -6 22 -30z m-489 -7 c-8 -8 -11 -7 -11 4 0 9 3 19 7 23 4 4 9
2 11 -4 3 -7 -1 -17 -7 -23z m-375 -4 c-10 -10 -19 5 -10 18 6 11 8 11 12 0 2
-7 1 -15 -2 -18z m976 -29 c2 -44 -1 -58 -13 -65 -14 -7 -16 -1 -14 54 3 72 2
67 14 67 5 0 11 -25 13 -56z m-492 19 c0 -5 -4 -15 -10 -23 -11 -18 -25 -7
-17 15 6 15 27 21 27 8z m-587 -105 c-9 -43 -20 -78 -26 -78 -11 0 -3 80 12
107 5 10 12 27 16 37 13 43 12 6 -2 -66z m1012 43 c-10 -16 -25 -3 -25 22 0
20 1 20 16 5 9 -9 13 -21 9 -27z m-679 -49 c-11 -10 -13 3 -7 43 l6 40 3 -39
c2 -21 1 -41 -2 -44z m144 58 c0 -5 -2 -10 -4 -10 -3 0 -8 5 -11 10 -3 6 -1
10 4 10 6 0 11 -4 11 -10z m254 -74 c-6 -16 -8 -17 -16 -2 -11 19 0 42 13 29
6 -6 7 -18 3 -27z m376 -32 c0 -14 -4 -23 -10 -19 -5 3 -10 15 -10 26 0 10 5
19 10 19 6 0 10 -12 10 -26z m237 -6 c-3 -8 -6 -5 -6 6 -1 11 2 17 5 13 3 -3
4 -12 1 -19z m-1740 -25 c-3 -10 -5 -4 -5 12 0 17 2 24 5 18 2 -7 2 -21 0 -30z
m1077 -15 c-4 -22 -2 -28 11 -28 11 0 15 -7 13 -20 -2 -12 -7 -19 -11 -18 -5
2 -13 -5 -18 -14 -6 -10 -14 -18 -19 -18 -14 0 -23 40 -12 53 5 7 13 32 17 56
5 31 10 40 16 30 5 -8 6 -26 3 -41z m-99 -32 c-4 -20 -10 -36 -14 -36 -15 0
-20 13 -11 29 5 9 11 25 15 35 9 31 17 11 10 -28z m-905 -7 c0 -15 -5 -19 -15
-15 -9 3 -15 0 -15 -10 0 -20 -24 -12 -28 9 -2 10 6 21 20 26 34 14 38 13 38
-10z m1168 -17 c2 -23 -1 -32 -11 -32 -15 0 -30 48 -20 63 10 17 28 -1 31 -31z
m57 8 c-5 -8 -11 -8 -17 -2 -6 6 -7 16 -3 22 5 8 11 8 17 2 6 -6 7 -16 3 -22z
m259 3 c-10 -40 -14 -41 -14 -5 0 18 5 32 10 32 6 0 8 -11 4 -27z m-1344 -9
c0 -14 -4 -23 -10 -19 -5 3 -10 15 -10 26 0 10 5 19 10 19 6 0 10 -12 10 -26z
m930 -51 c0 -45 -12 -36 -17 13 -2 23 0 33 7 29 5 -3 10 -22 10 -42z m-1241 6
c-13 -26 -20 -21 -12 9 3 12 9 19 14 16 5 -3 4 -14 -2 -25z m218 -11 c-3 -7
-5 -2 -5 12 0 14 2 19 5 13 2 -7 2 -19 0 -25z m-139 -106 c-5 -24 -34 -27 -34
-4 0 10 8 19 19 19 12 1 17 -4 15 -15z m-28 -48 c0 -2 -7 -4 -15 -4 -8 0 -15
4 -15 10 0 5 7 7 15 4 8 -4 15 -8 15 -10z m1396 -199 c13 -16 31 -55 40 -85 9
-30 19 -59 24 -65 4 -5 10 -22 14 -37 13 -54 25 -35 50 75 4 15 10 27 15 27
12 0 36 -39 50 -82 15 -46 26 -48 46 -8 9 17 18 30 20 30 14 0 37 -70 45 -139
8 -63 7 -85 -4 -113 -19 -44 -26 -49 -105 -78 -62 -23 -64 -23 -77 -5 -8 10
-14 30 -15 44 0 23 -1 22 -12 -9 -7 -20 -25 -41 -44 -53 -32 -18 -32 -18 -73
8 -22 14 -43 32 -46 40 -8 19 -71 58 -83 51 -5 -3 -7 -23 -4 -44 6 -48 -23
-88 -75 -100 -123 -30 -172 -35 -197 -18 -35 23 -45 20 -45 -12 0 -56 -46 -82
-224 -129 -179 -46 -206 -50 -218 -29 -14 25 -31 19 -24 -8 7 -29 0 -32 -164
-70 -175 -41 -250 -55 -264 -50 -8 3 -16 19 -20 35 -7 34 -26 30 -26 -5 0 -13
-6 -28 -12 -34 -19 -15 -204 -72 -234 -72 l-25 0 28 25 28 26 -22 16 c-26 18
-29 30 -9 35 10 2 11 9 4 28 -10 24 -11 24 -18 5 -7 -18 -8 -17 -15 9 -5 20
-4 31 6 37 11 7 10 11 -6 23 -11 9 -23 16 -27 16 -12 0 -10 28 2 35 6 4 17 2
24 -4 10 -9 15 -7 19 9 4 15 1 21 -11 19 -29 -3 -32 0 -22 26 6 15 6 25 0 25
-5 0 -8 16 -7 35 2 29 6 35 26 35 16 0 21 4 18 14 -4 10 0 12 15 8 15 -4 17
-7 6 -13 -7 -5 -8 -9 -3 -10 6 -1 15 -2 20 -4 6 -1 16 -3 22 -3 7 -1 31 -18
53 -38 40 -37 66 -38 54 -2 -4 15 -3 18 6 13 10 -6 12 8 8 63 -3 40 -1 75 4
80 6 6 11 24 13 40 1 17 9 38 18 47 10 9 17 23 17 30 0 9 6 12 17 8 11 -4 14
-3 9 5 -9 15 33 32 78 32 18 0 41 6 51 14 14 10 26 11 44 5 13 -6 31 -7 38 -5
8 3 11 1 8 -4 -10 -16 21 -11 35 5 16 19 49 19 74 0 23 -17 36 -19 36 -5 0 6
-7 10 -15 10 -8 0 -15 4 -15 9 0 16 127 100 168 110 20 6 64 24 97 41 32 16
71 30 85 30 42 0 142 21 175 36 17 8 89 19 160 25 72 5 155 13 185 17 30 4 84
7 118 7 59 0 66 -2 88 -30z m859 -16 c-9 -14 5 -11 21 5 8 8 23 12 36 8 12 -3
17 -7 10 -10 -6 -2 -12 -8 -12 -13 0 -6 8 -6 19 1 27 14 31 13 31 -10 0 -10 6
-23 14 -27 8 -4 16 -19 18 -33 2 -17 8 -24 21 -22 22 4 33 -24 17 -43 -7 -8
-9 -15 -5 -15 5 0 0 -9 -10 -20 -15 -16 -15 -22 -5 -35 7 -8 16 -15 20 -15 10
0 24 49 21 78 -1 12 3 22 9 22 7 0 10 -8 7 -20 -3 -11 -1 -22 3 -25 5 -3 4
-20 -1 -38 -12 -41 -11 -47 2 -47 5 0 7 5 4 10 -4 6 7 10 24 10 22 0 31 5 31
16 0 9 6 14 12 12 7 -3 18 0 24 7 19 19 48 79 45 94 -2 9 3 12 13 8 9 -4 16
-2 16 3 0 5 9 12 20 15 11 3 20 15 20 25 0 13 -7 18 -20 17 -13 -1 -20 -8 -20
-21 0 -11 -3 -17 -6 -13 -4 3 -4 18 0 32 8 32 51 36 61 5 4 -11 11 -18 16 -15
5 4 9 -3 9 -14 0 -11 5 -23 10 -26 6 -3 10 -15 10 -25 0 -10 10 -26 22 -34 18
-13 19 -16 6 -16 -9 0 -24 7 -33 16 -8 9 -22 13 -30 10 -19 -7 -20 -26 -1 -26
15 0 29 -27 21 -40 -3 -4 7 -11 22 -15 20 -5 31 -2 41 12 13 17 13 16 10 -7
-3 -23 -7 -25 -48 -24 -40 2 -43 1 -25 -12 10 -8 22 -14 26 -14 12 0 18 -44 8
-56 -17 -21 17 -95 35 -77 3 4 6 2 6 -4 0 -16 -32 -25 -44 -13 -5 5 -17 10
-25 9 -12 0 -10 -4 7 -16 28 -20 29 -43 1 -43 -15 0 -19 -4 -15 -16 3 -9 6
-20 6 -25 0 -5 7 -9 16 -9 10 0 14 5 10 16 -3 8 -2 12 4 9 16 -10 12 -45 -5
-45 -8 0 -15 -9 -15 -20 0 -11 -4 -20 -10 -20 -5 0 -10 5 -10 10 0 6 -5 10
-11 10 -6 0 -9 -12 -7 -27 2 -19 -1 -27 -11 -25 -7 1 -11 -3 -8 -10 2 -7 11
-13 19 -12 17 1 24 -51 8 -61 -8 -5 -7 -11 1 -21 9 -11 8 -14 -3 -14 -11 0
-14 -7 -10 -25 2 -14 8 -28 13 -31 5 -3 9 -12 9 -20 0 -12 -7 -14 -32 -9 -24
6 -30 4 -25 -6 3 -8 8 -21 11 -30 5 -10 -2 -20 -19 -29 -28 -15 -32 -32 -10
-50 17 -14 21 -45 5 -35 -5 3 -10 -3 -10 -14 0 -15 4 -19 17 -14 13 5 15 2 10
-11 -4 -10 -7 -22 -7 -27 0 -5 -8 -9 -17 -10 -15 0 -15 -2 2 -9 19 -8 19 -9
-2 -9 -13 -1 -23 -7 -23 -15 0 -7 -9 -20 -20 -27 -21 -15 -24 -43 -15 -134 4
-36 1 -55 -10 -70 -10 -12 -19 -16 -23 -10 -8 12 -82 47 -82 39 0 -2 8 -16 17
-30 14 -22 14 -27 2 -34 -11 -7 -11 -12 -1 -22 6 -6 12 -19 12 -28 0 -9 8 -25
19 -34 13 -11 19 -31 19 -63 1 -26 7 -50 14 -55 10 -6 10 -10 -2 -17 -9 -6
-19 -6 -26 -1 -6 6 -13 7 -16 4 -3 -3 -8 10 -12 29 -3 18 -12 34 -19 34 -6 0
-20 4 -29 8 -25 10 -23 -17 2 -40 11 -10 20 -28 20 -41 0 -13 9 -39 21 -58 12
-20 16 -36 10 -36 -6 0 -11 5 -11 10 0 13 -27 13 -34 1 -8 -12 26 -71 41 -71
21 0 25 -20 6 -27 -19 -7 -33 -22 -33 -36 0 -5 5 -5 12 -1 6 4 8 3 5 -3 -4 -6
-18 -8 -32 -5 -16 3 -25 0 -25 -8 0 -14 46 -60 61 -60 5 0 9 -5 9 -11 0 -6 -7
-9 -15 -5 -9 3 -15 0 -15 -9 0 -27 -17 -15 -24 16 -8 42 -30 32 -34 -16 -4
-42 17 -69 44 -58 8 3 14 -1 14 -11 0 -13 -9 -15 -45 -11 -35 3 -45 1 -45 -10
0 -8 -4 -15 -9 -15 -15 0 -23 18 -11 25 15 9 2 25 -20 25 -16 0 -17 -3 -6 -42
7 -23 20 -44 29 -47 12 -4 14 -10 7 -21 -7 -10 -10 -11 -10 -2 0 6 -9 12 -20
12 -23 0 -24 -4 -9 -32 8 -15 8 -19 0 -14 -18 12 -34 -4 -20 -20 6 -7 15 -12
19 -9 5 3 12 0 15 -6 8 -12 -9 -33 -28 -35 -7 0 -21 -2 -32 -3 -12 -1 -27 -16
-38 -38 -15 -31 -16 -34 -2 -23 8 7 18 10 21 7 9 -9 -5 -27 -21 -27 -7 0 -22
-12 -33 -27 l-21 -28 -11 29 c-10 27 -11 28 -24 10 -10 -12 -11 -26 -5 -41 8
-21 5 -24 -21 -30 -17 -3 -30 -12 -30 -19 0 -8 -5 -14 -11 -14 -7 0 -8 11 -4
29 6 28 4 30 -23 29 -29 -1 -41 -13 -56 -60 -10 -32 -29 -20 -22 13 3 17 6 38
6 45 0 17 51 44 83 44 25 0 47 29 24 31 -7 0 -22 2 -35 5 -13 2 -30 -3 -38
-11 -9 -8 -19 -13 -24 -10 -5 3 -10 -1 -13 -7 -3 -10 -9 -8 -24 5 -26 23 -55
22 -76 -4 -12 -13 -27 -19 -45 -17 -15 2 -27 -1 -28 -7 -2 -29 -18 -43 -47
-44 -53 0 -121 -13 -136 -25 -12 -9 -13 -6 -7 19 12 53 15 77 9 91 -7 20 -22
17 -22 -3 0 -46 -18 -78 -77 -137 -59 -61 -126 -106 -157 -106 -7 0 -35 -16
-62 -35 -56 -39 -76 -37 -27 3 35 29 44 56 15 45 -16 -6 -16 -5 -4 10 9 11 21
15 37 11 13 -4 24 -2 24 4 0 12 72 42 100 42 10 0 23 6 27 14 4 7 15 16 23 19
12 4 11 6 -2 6 -13 1 -18 9 -18 30 0 23 -4 28 -18 24 -10 -2 -26 6 -39 19 -18
19 -19 25 -7 36 7 7 17 12 21 11 4 0 9 5 11 11 3 8 -3 10 -15 6 -15 -5 -19 -2
-18 14 1 11 4 23 8 26 3 4 2 15 -4 26 -19 35 -30 7 -26 -68 4 -73 4 -74 -20
-68 -22 6 -34 -11 -12 -18 7 -2 7 -12 0 -30 -6 -17 -7 -29 -1 -33 16 -10 11
-19 -15 -32 -14 -6 -27 -7 -31 -2 -3 5 -15 0 -26 -11 -12 -11 -24 -20 -27 -20
-3 0 -4 30 -3 66 3 46 0 64 -7 60 -6 -4 -11 -25 -11 -47 0 -33 -3 -39 -21 -39
-20 0 -21 4 -15 50 7 53 2 58 -39 40 -18 -8 -18 -9 -2 -9 15 -1 17 -7 11 -38
-4 -21 -8 -39 -9 -41 -1 -1 -29 -7 -63 -13 -33 -6 -63 -17 -66 -24 -3 -10 4
-11 32 -4 20 5 58 6 85 2 32 -4 47 -2 47 6 0 6 7 11 15 11 25 0 17 -38 -19
-90 -34 -50 -55 -90 -97 -192 -13 -32 -28 -58 -32 -58 -18 0 -18 33 0 53 25
28 43 71 43 102 0 14 8 29 20 35 11 6 20 17 20 25 0 20 -19 19 -26 0 -4 -8
-17 -15 -30 -15 -13 0 -28 -9 -34 -19 -14 -27 -13 -30 9 -24 22 6 38 -26 19
-39 -18 -11 -36 -10 -43 2 -8 14 -45 -6 -45 -24 0 -9 10 -13 30 -12 34 2 41
-18 11 -33 -15 -8 -20 -7 -25 6 -6 15 -8 14 -20 -3 -7 -10 -17 -30 -21 -44
l-8 -25 21 25 21 25 1 -36 c0 -56 -11 -97 -27 -104 -12 -4 -14 0 -11 19 7 37
-6 50 -22 21 -7 -14 -17 -25 -22 -25 -12 0 -10 -88 3 -92 13 -4 -23 -79 -48
-100 -14 -11 -15 -10 -8 12 15 46 24 94 19 101 -2 4 5 32 16 61 11 29 20 70
20 90 0 20 4 47 9 60 5 13 13 43 19 68 6 25 14 54 17 65 8 23 -38 -47 -56 -85
-6 -14 -12 -52 -14 -85 -1 -43 -11 -79 -33 -125 l-31 -65 0 63 c-1 34 -5 62
-11 62 -18 0 -30 -39 -27 -92 2 -54 -25 -138 -46 -138 -10 0 -8 9 18 80 12 33
14 50 6 67 -8 18 -5 39 19 100 32 83 37 108 16 81 -14 -19 -36 -24 -36 -8 0 5
8 25 17 45 l17 35 23 -22 23 -21 0 24 c1 21 39 89 95 167 11 15 24 22 35 19
12 -3 20 2 23 15 5 17 2 18 -25 12 l-31 -6 23 38 c13 22 37 56 54 76 53 63 76
96 76 106 0 6 9 13 19 17 21 6 34 31 25 46 -3 6 -23 -13 -45 -42 -50 -67 -73
-84 -89 -64 -8 10 -9 19 0 34 6 12 10 36 9 53 0 18 2 43 6 56 5 14 3 22 -4 22
-15 0 -14 37 1 42 8 3 5 13 -10 33 -14 17 -22 42 -22 66 0 29 -3 37 -14 33
-11 -4 -17 8 -25 48 -18 95 -23 172 -12 201 7 18 7 26 1 22 -6 -3 -10 -1 -10
6 0 7 -3 9 -7 5 -4 -4 -11 -51 -14 -104 -4 -53 -10 -109 -14 -125 -6 -23 -5
-26 9 -21 9 3 16 2 16 -4 0 -13 -27 -23 -45 -16 -19 8 -20 70 -2 81 8 4 17 21
21 36 6 26 5 28 -16 22 -13 -4 -20 -4 -15 0 4 5 0 17 -9 27 -12 12 -14 21 -6
30 5 7 13 39 17 70 6 49 5 59 -9 64 -24 9 -34 -5 -13 -20 18 -14 24 -32 7 -21
-5 3 -15 -3 -22 -15 -15 -23 -48 -27 -48 -5 0 19 -14 19 -30 0 -10 -12 -9 -16
4 -21 9 -3 16 -12 16 -19 0 -8 8 -11 20 -8 13 4 20 0 20 -10 0 -17 -27 -30
-42 -21 -5 3 -31 7 -58 9 -56 3 -60 -3 -49 -72 7 -54 -2 -70 -26 -43 -10 11
-14 20 -10 20 5 0 0 6 -10 14 -16 12 -17 16 -6 29 9 12 10 21 2 34 -9 16 -11
14 -17 -14 -7 -35 -27 -58 -53 -58 -9 0 -19 -15 -26 -38 -8 -29 -13 -35 -23
-25 -6 6 -12 20 -12 30 0 10 -4 18 -10 18 -5 0 -10 7 -10 15 0 8 -4 15 -10 15
-5 0 -10 -15 -10 -34 0 -19 -4 -38 -10 -41 -18 -11 -10 -23 21 -30 17 -4 33
-13 35 -20 6 -13 -30 -105 -40 -105 -3 0 -3 7 0 15 10 26 -12 16 -24 -10 -10
-22 -15 -24 -32 -15 -11 6 -25 8 -30 5 -16 -10 -20 12 -5 25 9 7 13 21 10 31
-3 10 -2 26 3 36 23 44 41 94 48 128 4 24 11 35 19 31 16 -6 39 18 33 35 -2 7
-25 -8 -53 -35 -27 -25 -55 -46 -61 -46 -7 0 -15 12 -18 26 -6 24 -8 25 -25
10 -10 -9 -23 -16 -29 -16 -6 0 -21 -13 -34 -30 -13 -18 -31 -30 -45 -30 -13
0 -26 -7 -30 -15 -8 -23 7 -33 18 -12 6 9 14 15 20 12 15 -10 10 -24 -11 -35
-16 -9 -24 -7 -36 5 -8 8 -23 15 -32 14 -11 0 -12 -2 -4 -6 6 -2 12 -11 12
-19 0 -8 -6 -14 -12 -14 -9 0 -8 -4 2 -10 12 -8 7 -18 -32 -55 -31 -30 -52
-43 -63 -39 -22 9 -16 50 7 46 9 -1 22 7 29 20 7 13 18 27 25 31 8 4 14 15 14
23 0 12 -9 14 -45 10 -42 -4 -44 -3 -32 15 6 10 17 19 22 19 6 0 20 7 31 15
19 15 19 15 -1 33 -25 20 -38 48 -39 79 -1 35 -20 32 -31 -4 -5 -18 -13 -33
-17 -33 -4 0 -8 -9 -8 -20 0 -11 -5 -20 -11 -20 -7 0 -17 -7 -24 -17 -8 -11
-18 -14 -31 -9 -18 7 -18 8 -1 20 9 7 17 21 17 30 0 9 7 16 15 16 8 0 15 7 15
15 0 8 -4 15 -10 15 -5 0 -10 -5 -10 -12 0 -9 -3 -9 -12 0 -9 9 -8 17 2 37 11
20 11 28 1 38 -9 9 -14 9 -20 -2 -7 -10 -13 -11 -27 -2 -18 10 -18 11 3 17 12
3 19 12 17 19 -3 7 8 18 26 26 28 12 31 18 27 46 -6 33 16 67 26 41 2 -7 8
-10 12 -5 5 4 0 13 -10 21 -13 9 -15 15 -6 20 8 5 7 11 -3 21 -8 9 -12 24 -9
37 6 23 6 23 -15 4 -22 -19 -22 -19 -24 10 -3 48 2 87 12 100 6 6 8 19 4 28
-5 12 0 16 19 16 14 0 27 -5 29 -12 3 -8 13 -5 33 10 l28 22 -36 0 c-25 0 -39
6 -50 23 -14 22 -13 24 34 52 81 50 74 68 -17 40 -58 -18 -54 -17 -54 -6 0 15
60 48 125 69 112 36 384 109 430 115 17 2 41 9 55 15 36 15 207 62 230 62 10
0 22 -5 25 -11 5 -7 12 -5 23 4 18 16 208 57 261 57 24 0 31 -4 31 -20 0 -13
-7 -20 -20 -20 -11 0 -20 -5 -20 -11 0 -6 -8 -8 -19 -4 -11 3 -22 2 -25 -4 -3
-5 -24 -12 -47 -16 -22 -4 -38 -9 -36 -12 3 -2 29 0 58 5 36 7 60 7 73 0 13
-7 16 -7 12 0 -4 6 14 23 39 38 36 21 49 24 58 15 9 -10 8 -16 -7 -27 -11 -8
-26 -14 -33 -14 -31 0 8 -39 40 -40 10 0 28 -7 41 -15 21 -14 23 -14 21 4 0
10 -9 26 -18 35 -18 18 -23 46 -9 46 5 0 24 14 42 30 37 33 53 38 44 15 -4 -8
-11 -15 -17 -15 -8 0 -8 -3 0 -11 14 -14 36 -1 29 17 -3 8 -1 14 4 14 5 0 7 7
4 15 -4 9 0 15 10 15 9 0 16 -4 16 -10 0 -19 15 -10 28 17 16 36 15 46 -4 39
-10 -4 -14 -1 -12 6 3 7 24 20 49 28 24 8 47 19 50 24 4 5 12 5 19 1 9 -5 11
-4 6 3 -5 8 0 12 13 12 31 0 248 198 276 251 8 15 17 64 21 110 4 46 13 99 22
117 15 34 57 63 79 55 19 -7 -15 -53 -38 -53 -26 0 -24 -23 3 -35 30 -14 34
-33 8 -37 -18 -2 -23 -11 -25 -46 -2 -24 -10 -54 -19 -66 -10 -16 -11 -27 -4
-34 6 -6 5 -19 -6 -40 -10 -19 -12 -33 -6 -37 6 -3 10 4 10 16 0 18 3 20 12
11 13 -13 -6 -42 -29 -42 -26 0 -103 -40 -103 -54 0 -7 -7 -19 -16 -27 -8 -7
-13 -21 -11 -31 6 -21 -4 -23 -22 -5 -10 10 -17 6 -36 -17 -15 -18 -29 -27
-39 -23 -11 5 -17 -2 -22 -28 -3 -18 -15 -44 -27 -56 l-21 -23 -7 25 c-4 13
-7 19 -8 13 -1 -7 -8 -11 -17 -10 -14 1 -17 -12 -20 -76 -4 -79 -4 -79 34 -78
12 1 9 43 -5 67 -8 14 -9 24 -3 28 15 9 30 -4 30 -25 0 -10 4 -20 8 -22 4 -1
6 -24 4 -50 l-4 -47 -47 6 c-54 6 -104 -17 -94 -43 7 -18 23 -18 23 1 0 21 38
39 54 26 8 -6 21 -8 31 -5 15 6 16 5 4 -15 -8 -11 -17 -21 -20 -21 -3 0 -6
-13 -7 -29 -1 -30 -1 -30 51 -26 29 2 63 4 76 5 21 0 23 3 18 34 -6 40 15 70
27 39 6 -15 8 -15 17 -3 8 13 12 11 29 -10 l20 -25 -7 35 c-3 19 -13 39 -20
43 -12 7 -9 12 13 23 15 8 33 13 39 11 18 -8 58 31 51 49 -5 12 -2 15 12 12
14 -4 24 3 36 23 10 16 15 33 12 38 -3 5 1 11 9 15 20 7 19 46 -1 46 -8 0 -12
5 -9 10 3 6 18 10 32 10 20 0 24 4 18 18 -13 32 -18 132 -7 132 6 0 17 12 24
28 24 46 43 76 54 87 7 5 14 21 17 35 16 70 26 101 41 115 9 9 16 22 16 28 0
7 14 32 30 56 17 24 30 53 30 64 0 16 45 130 57 147 2 2 8 -2 13 -10 7 -10 10
-11 10 -2 0 6 6 12 14 12 7 0 16 9 19 21 3 12 10 18 16 14 6 -3 9 -11 6 -16z
m-228 -152 c-6 -19 -24 -18 -29 1 -4 15 -1 18 14 14 10 -2 17 -9 15 -15z m39
7 c-3 -9 -6 -20 -6 -25 0 -6 -4 -8 -9 -5 -12 8 -2 46 11 46 6 0 7 -7 4 -16z
m735 -7 c-10 -9 -11 -8 -5 6 3 10 9 15 12 12 3 -3 0 -11 -7 -18z m-797 -66 c3
-5 0 -21 -8 -35 -10 -20 -16 -23 -23 -14 -7 8 -7 22 -2 36 9 23 24 29 33 13z
m-231 -98 c6 -33 1 -43 -20 -43 -11 0 -14 6 -9 23 3 12 6 28 6 35 0 23 18 12
23 -15z m191 -39 c8 -22 8 -26 -4 -19 -5 3 -19 1 -31 -5 -14 -8 -24 -9 -31 -2
-7 7 -1 15 18 26 37 19 41 19 48 0z m-2084 -179 c0 -13 -4 -14 -20 -5 -11 6
-20 13 -20 15 0 3 9 5 20 5 11 0 20 -7 20 -15z m2870 -65 c0 -5 -2 -10 -4 -10
-3 0 -8 5 -11 10 -3 6 -1 10 4 10 6 0 11 -4 11 -10z m-865 -110 c3 -5 1 -10
-4 -10 -6 0 -11 5 -11 10 0 6 2 10 4 10 3 0 8 -4 11 -10z m-219 -37 c-10 -10
-19 5 -10 18 6 11 8 11 12 0 2 -7 1 -15 -2 -18z m-358 -45 c18 -18 15 -23 -28
-52 -48 -32 -50 -32 -50 -3 0 50 49 84 78 55z m282 -3 c-7 -8 -10 -21 -7 -30
4 -8 2 -17 -2 -20 -12 -7 -23 24 -16 46 4 11 13 19 22 19 13 0 13 -3 3 -15z
m190 -89 c0 -3 -4 -8 -10 -11 -5 -3 -10 -1 -10 4 0 6 5 11 10 11 6 0 10 -2 10
-4z m-175 -74 c-8 -2 -12 -10 -8 -20 5 -13 3 -14 -6 -6 -10 9 -10 16 0 32 10
15 15 18 21 9 4 -7 2 -13 -7 -15z m-365 4 c0 -2 -9 -6 -20 -9 -11 -3 -18 -1
-14 4 5 9 34 13 34 5z m340 -76 c0 -5 -5 -10 -11 -10 -5 0 -7 5 -4 10 3 6 8
10 11 10 2 0 4 -4 4 -10z m-30 -25 c0 -8 -9 -15 -20 -15 -22 0 -27 15 -7 23
21 9 27 7 27 -8z m-1692 -106 c23 -17 42 -34 42 -39 0 -4 -21 -10 -47 -13 -27
-3 -59 -9 -72 -13 -23 -7 -24 -5 -17 26 6 32 31 70 46 70 3 0 25 -14 48 -31z
m2942 -59 c0 -5 -4 -10 -10 -10 -5 0 -10 5 -10 10 0 6 5 10 10 10 6 0 10 -4
10 -10z m90 -144 c0 -3 -4 -8 -10 -11 -5 -3 -10 -1 -10 4 0 6 5 11 10 11 6 0
10 -2 10 -4z m-200 -161 c0 -26 -3 -33 -15 -29 -8 4 -15 10 -15 16 0 5 5 6 11
2 9 -5 10 1 5 20 -4 15 -2 26 4 26 5 0 10 -16 10 -35z m79 -34 c0 -9 -6 -4
-13 12 -7 15 -16 24 -21 20 -4 -5 -5 -2 0 6 7 12 10 11 22 -4 7 -11 13 -26 12
-34z m-21 -37 c-10 -10 -28 6 -28 24 0 15 1 15 17 -1 9 -9 14 -19 11 -23z
m-2778 -4 c0 -5 -7 -10 -15 -10 -8 0 -15 5 -15 10 0 6 7 10 15 10 8 0 15 -4
15 -10z m2880 0 c0 -5 -7 -7 -15 -4 -8 4 -15 8 -15 10 0 2 7 4 15 4 8 0 15 -4
15 -10z m-250 -40 c0 -5 -2 -10 -4 -10 -3 0 -8 5 -11 10 -3 6 -1 10 4 10 6 0
11 -4 11 -10z m196 -23 c2 -15 -2 -18 -19 -13 -12 3 -29 6 -37 6 -11 1 -10 4
5 16 25 18 47 14 51 -9z m59 3 c3 -5 -1 -10 -9 -10 -9 0 -16 5 -16 10 0 6 4
10 9 10 6 0 13 -4 16 -10z m-105 -60 c0 -5 -7 -10 -15 -10 -8 0 -15 5 -15 10
0 6 7 10 15 10 8 0 15 -4 15 -10z m100 -20 c0 -5 -4 -10 -10 -10 -5 0 -10 5
-10 10 0 6 5 10 10 10 6 0 10 -4 10 -10z m-2090 -35 c-14 -17 -40 -20 -40 -6
0 8 18 16 44 20 5 0 3 -6 -4 -14z m2055 -25 c-3 -5 -13 -6 -21 -3 -12 4 -13 8
-3 14 15 9 32 2 24 -11z m-1978 -32 c-3 -7 -5 -2 -5 12 0 14 2 19 5 13 2 -7 2
-19 0 -25z m60 0 c-3 -8 -6 -5 -6 6 -1 11 2 17 5 13 3 -3 4 -12 1 -19z m-544
-14 c23 -9 21 -26 -5 -43 -17 -10 -23 -11 -26 -2 -3 8 -9 6 -17 -6 -11 -14
-16 -15 -26 -6 -9 9 -6 18 12 42 13 16 29 28 34 25 6 -2 18 -7 28 -10z m410
-23 c19 -33 22 -45 7 -36 -5 3 -10 -1 -10 -9 0 -9 -4 -16 -10 -16 -5 0 -10 10
-10 23 0 12 -3 32 -6 45 -9 31 8 27 29 -7z m-153 -6 c0 -14 -4 -25 -9 -25 -5
0 -12 -13 -16 -30 -11 -52 -27 -47 -20 6 9 66 12 74 30 74 9 0 15 -9 15 -25z
m2170 -15 c0 -5 -4 -10 -10 -10 -5 0 -10 5 -10 10 0 6 5 10 10 10 6 0 10 -4
10 -10z m-2830 -15 c0 -8 -4 -15 -9 -15 -5 0 -11 7 -15 15 -3 9 0 15 9 15 8 0
15 -7 15 -15z m700 -5 c0 -5 -5 -10 -11 -10 -5 0 -7 5 -4 10 3 6 8 10 11 10 2
0 4 -4 4 -10z m169 -49 c-18 -14 -24 -29 -24 -65 -1 -31 -8 -56 -24 -77 -13
-17 -25 -28 -28 -26 -12 13 58 194 81 209 22 15 17 -23 -5 -41z m1809 9 l22
-29 -22 8 c-13 4 -24 18 -26 30 -4 28 0 27 26 -9z m-2718 16 c0 -3 -4 -8 -10
-11 -5 -3 -10 -1 -10 4 0 6 5 11 10 11 6 0 10 -2 10 -4z m83 -26 c-3 -11 -9
-20 -13 -20 -5 0 -6 9 -3 20 3 11 9 20 13 20 5 0 6 -9 3 -20z m90 13 c8 -7
-21 -43 -35 -43 -12 0 -10 24 4 38 14 14 22 15 31 5z m652 -25 c-9 -39 -75
-160 -75 -137 0 9 13 42 29 75 16 32 31 67 34 77 11 30 19 19 12 -15z m-475
15 c0 -5 -25 -33 -56 -62 -48 -48 -54 -57 -40 -67 9 -6 16 -19 16 -28 0 -22
13 -20 30 5 12 16 69 49 86 49 14 0 -15 -33 -54 -61 -26 -18 -56 -42 -67 -52
-28 -26 -120 -77 -138 -77 -9 0 -22 -6 -29 -13 -22 -21 -62 -44 -89 -50 -22
-6 -28 -3 -32 14 -6 23 17 54 32 44 5 -3 13 0 17 6 4 7 3 10 -2 6 -5 -3 -18 1
-28 9 -16 11 -17 16 -6 29 7 8 9 19 5 23 -4 4 -10 1 -12 -5 -8 -22 -30 -14
-35 11 -4 18 0 26 14 29 10 3 18 14 18 26 0 15 5 19 16 14 9 -3 20 0 24 7 4 7
13 9 19 6 17 -11 13 -24 -9 -31 -11 -3 -20 -13 -20 -21 0 -8 -5 -14 -11 -14
-5 0 -7 -4 -4 -10 11 -17 37 -11 42 10 6 24 12 25 28 4 14 -20 55 -10 55 12 0
10 6 13 18 10 9 -3 30 1 46 9 44 23 54 6 16 -26 -19 -16 -31 -32 -27 -36 4 -3
16 3 27 15 12 12 30 22 40 22 24 0 27 15 5 24 -8 3 -15 12 -15 21 0 18 -7 19
-56 1 -22 -7 -45 -11 -51 -9 -7 3 -13 -2 -13 -11 0 -9 -4 -16 -10 -16 -5 0
-10 16 -10 35 0 32 3 35 29 35 16 0 31 -6 33 -12 5 -14 46 14 130 89 46 41 68
52 68 36z m713 -33 c9 -22 17 -55 17 -73 0 -18 4 -37 9 -42 12 -14 25 -95 14
-95 -4 0 -15 4 -23 10 -9 5 -19 5 -27 -2 -21 -17 -15 -28 17 -28 29 0 30 -2
30 -45 0 -38 -4 -47 -23 -54 -13 -5 -29 -16 -36 -24 -23 -29 -111 -79 -126
-73 -9 3 -15 0 -15 -10 0 -8 -17 -36 -39 -62 -49 -60 -103 -138 -120 -177 -8
-16 -16 -24 -18 -18 -6 16 15 79 30 96 7 6 20 23 30 37 9 14 35 49 56 79 32
45 37 58 28 72 -9 15 -5 25 19 56 17 21 40 42 52 48 12 5 22 16 22 23 0 7 11
18 25 24 14 6 25 17 25 25 0 18 -35 16 -51 -3 -23 -28 -67 -44 -119 -44 -38 0
-50 4 -50 15 0 8 4 15 10 15 5 0 16 12 24 28 l15 27 1 -26 c0 -15 7 -29 15
-33 8 -3 15 -1 15 5 0 6 10 9 23 8 33 -3 68 15 100 50 27 30 37 35 66 31 11
-1 12 1 4 12 -6 7 -13 24 -15 36 l-3 24 -27 -22 c-28 -21 -48 -20 -48 3 0 7
16 23 35 36 35 23 50 59 20 47 -19 -7 -21 34 -3 52 18 18 22 15 41 -28z m-966
-12 c0 -18 5 -34 11 -36 17 -5 15 -22 -3 -22 -8 0 -15 5 -15 11 0 7 -8 18 -17
25 -17 12 -17 14 2 33 11 11 20 20 21 20 0 1 1 -13 1 -31z m614 -25 c-8 -15
-10 -15 -11 -2 0 17 10 32 18 25 2 -3 -1 -13 -7 -23z m206 -5 c-3 -7 -5 -2 -5
12 0 14 2 19 5 13 2 -7 2 -19 0 -25z m-925 -5 c19 -17 24 -43 9 -43 -5 0 -14
7 -21 15 -7 8 -21 15 -31 15 -21 0 -26 16 -6 23 21 9 30 7 49 -10z m2508 7 c0
-5 -2 -10 -4 -10 -3 0 -8 5 -11 10 -3 6 -1 10 4 10 6 0 11 -4 11 -10z m-2177
-35 c1 -5 -11 -12 -27 -13 -27 -3 -28 -2 -16 13 14 17 40 17 43 0z m93 -30
c-24 -36 -85 -95 -99 -95 -7 0 -34 -16 -61 -35 -27 -19 -44 -35 -38 -35 19 0
14 -38 -5 -45 -27 -9 -89 -63 -81 -70 9 -9 66 26 98 60 22 24 49 41 124 81 11
6 34 15 49 18 l29 7 -22 -31 c-12 -16 -16 -30 -10 -30 12 0 60 48 60 61 0 5 9
9 20 9 11 0 20 5 20 10 0 6 5 10 10 10 6 0 10 -8 10 -18 0 -12 -14 -25 -40
-37 -22 -10 -40 -24 -40 -30 0 -7 -18 -30 -40 -51 -31 -30 -37 -41 -28 -52 13
-15 9 -19 -53 -52 -20 -11 -40 -16 -43 -12 -4 3 -11 0 -16 -7 -5 -9 -14 -11
-26 -6 -18 8 -17 9 3 12 26 5 54 33 32 33 -27 -1 -83 -37 -70 -45 17 -10 -23
-52 -58 -60 -15 -3 -38 -19 -51 -35 -26 -32 -50 -39 -50 -16 0 8 -4 17 -10 21
-13 8 -60 -5 -60 -17 0 -6 7 -8 15 -4 20 7 19 -16 0 -54 -16 -31 -45 -41 -45
-15 0 8 -5 15 -11 15 -6 0 -8 -7 -5 -16 3 -9 6 -25 6 -35 0 -11 4 -17 10 -14
5 3 7 0 4 -9 -3 -8 -12 -17 -20 -20 -8 -3 -14 -12 -14 -21 0 -8 -7 -15 -15
-15 -17 0 -20 16 -4 25 6 4 8 13 5 21 -3 7 -1 16 4 19 7 5 -3 61 -13 71 -2 2
-18 -3 -35 -12 -23 -11 -36 -12 -49 -5 -16 9 -15 10 7 11 19 0 21 3 12 12 -7
7 -12 18 -12 26 0 17 46 63 54 54 3 -3 6 4 6 14 0 29 26 62 39 49 17 -18 1
-63 -25 -69 -31 -8 -30 -26 2 -49 25 -19 25 -19 31 2 3 12 11 21 18 21 7 0 15
7 19 15 3 8 26 24 51 36 25 12 45 27 45 35 0 19 -16 18 -24 -2 -3 -8 -10 -13
-16 -9 -5 3 -19 1 -30 -5 -31 -16 -45 -1 -21 22 12 10 25 17 30 14 5 -3 12 1
15 10 4 10 14 14 25 11 10 -2 29 2 42 10 23 14 23 14 -13 9 -27 -3 -38 -1 -38
8 0 19 20 32 60 40 38 7 130 79 114 89 -6 3 -22 -5 -37 -19 -14 -13 -33 -24
-42 -24 -9 0 -18 -7 -21 -15 -7 -17 -34 -21 -34 -5 0 10 99 80 113 80 5 0 27
13 50 29 23 15 65 40 92 54 28 14 63 42 78 61 32 41 47 48 23 11z m80 -20 c-1
-24 -9 -40 -24 -51 -22 -15 -22 -15 -20 18 2 41 15 68 32 68 8 0 12 -12 12
-35z m41 3 c-3 -7 -5 -2 -5 12 0 14 2 19 5 13 2 -7 2 -19 0 -25z m100 10 c-3
-8 -6 -5 -6 6 -1 11 2 17 5 13 3 -3 4 -12 1 -19z m1843 8 c0 -8 -4 -18 -10
-21 -5 -3 -10 3 -10 14 0 12 5 21 10 21 6 0 10 -6 10 -14z m-1803 -38 c-3 -7
-5 -2 -5 12 0 14 2 19 5 13 2 -7 2 -19 0 -25z m240 0 c-3 -7 -5 -2 -5 12 0 14
2 19 5 13 2 -7 2 -19 0 -25z m-317 -26 c0 -5 -9 -17 -20 -27 -16 -14 -20 -15
-20 -4 0 16 19 39 32 39 4 0 8 -4 8 -8z m340 -22 c-12 -23 -36 -40 -26 -19 3
8 9 22 12 31 4 10 10 15 15 12 5 -3 5 -13 -1 -24z m-544 -7 c-10 -10 -19 5
-10 18 6 11 8 11 12 0 2 -7 1 -15 -2 -18z m494 -23 c0 -5 -4 -10 -10 -10 -5 0
-10 5 -10 10 0 6 5 10 10 10 6 0 10 -4 10 -10z m1577 -22 c-3 -8 -6 -5 -6 6
-1 11 2 17 5 13 3 -3 4 -12 1 -19z m-1767 -8 c0 -5 -5 -10 -11 -10 -5 0 -7 5
-4 10 3 6 8 10 11 10 2 0 4 -4 4 -10z m-160 -9 c0 -5 -7 -16 -15 -25 -8 -8
-15 -23 -16 -33 0 -11 -3 -13 -6 -5 -6 16 16 72 28 72 5 0 9 -4 9 -9z m-600
-12 c0 -6 -24 -19 -36 -19 -2 0 -4 6 -4 14 0 9 9 14 20 13 11 -1 20 -4 20 -8z
m536 -26 c-10 -10 -19 5 -10 18 6 11 8 11 12 0 2 -7 1 -15 -2 -18z m1584 -17
c0 -17 -14 -29 -23 -20 -8 8 3 34 14 34 5 0 9 -6 9 -14z m-1500 -26 c-6 -11
-12 -20 -14 -20 -2 0 -2 9 1 20 3 11 9 20 15 20 5 0 4 -9 -2 -20z m542 -23
c-18 -18 -40 -55 -50 -83 -36 -101 -111 -219 -128 -202 -3 4 3 23 14 45 11 21
23 53 27 72 14 67 44 115 100 163 63 54 87 57 37 5z m888 27 c0 -8 -4 -12 -10
-9 -5 3 -10 10 -10 16 0 5 5 9 10 9 6 0 10 -7 10 -16z m-2047 -1 c-7 -2 -21
-2 -30 0 -10 3 -4 5 12 5 17 0 24 -2 18 -5z m807 -3 c-19 -13 -30 -13 -30 0 0
6 10 10 23 10 18 0 19 -2 7 -10z m795 -30 c-10 -11 -24 -20 -32 -20 -21 0 -15
27 9 44 30 22 48 3 23 -24z m604 4 c-14 -18 -24 -11 -15 11 3 9 11 13 16 10 8
-5 7 -11 -1 -21z m-1738 -17 c-8 -8 -11 -7 -11 4 0 9 3 19 7 23 4 4 9 2 11 -4
3 -7 -1 -17 -7 -23z m57 8 c-8 -18 -15 -22 -22 -15 -7 7 -4 15 10 25 25 19 25
19 12 -10z m1367 -6 c-6 -9 -35 -1 -35 10 0 4 3 11 7 14 8 9 34 -13 28 -24z
m-1185 6 c0 -8 -4 -15 -8 -15 -5 0 -17 -18 -28 -40 -18 -37 -57 -70 -70 -58
-10 11 11 91 25 96 9 3 11 -2 6 -18 -6 -19 -5 -20 12 -12 10 6 25 22 33 36 15
29 30 34 30 11z m1568 -14 c-13 -22 -28 -28 -28 -12 0 12 31 43 37 37 2 -2 -2
-13 -9 -25z m-2291 -16 c-1 -37 -18 -44 -23 -10 -2 16 11 45 21 45 2 0 3 -16
2 -35z m2053 27 c0 -10 -47 -41 -62 -42 -16 0 -26 29 -13 41 5 6 75 7 75 1z
m305 -1 c3 -5 1 -12 -5 -16 -5 -3 -10 1 -10 9 0 18 6 21 15 7z m-1530 -60
c-31 -29 -36 -31 -25 -11 17 32 54 68 59 56 2 -4 -14 -24 -34 -45z m1045 38
c13 -23 14 -22 -18 -38 -31 -17 -37 -8 -22 29 15 35 25 38 40 9z m-1295 1 c-3
-5 -13 -10 -21 -10 -8 0 -14 5 -14 10 0 6 9 10 21 10 11 0 17 -4 14 -10z
m1197 -10 c-22 -21 -79 -29 -67 -9 9 13 44 28 69 28 19 1 19 0 -2 -19z m158
-10 c-18 -11 -24 -6 -16 16 5 14 9 15 19 5 9 -9 9 -14 -3 -21z m-1868 5 c0 -5
-5 -11 -11 -13 -6 -2 -11 4 -11 13 0 9 5 15 11 13 6 -2 11 -8 11 -13z m429
-35 l-21 -29 23 -3 c19 -3 17 -6 -18 -28 -22 -14 -46 -23 -54 -22 -10 3 -12
-2 -6 -15 4 -10 10 -26 12 -35 3 -10 10 -18 17 -18 6 0 5 -4 -3 -9 -14 -9 -41
8 -41 26 -1 13 -37 53 -49 53 -6 0 -11 6 -11 14 0 8 -3 21 -6 30 -4 12 0 16
16 16 12 0 30 5 40 10 13 7 21 7 25 0 3 -6 0 -13 -9 -16 -20 -8 -27 -30 -16
-56 5 -13 9 -17 9 -8 1 8 10 21 21 28 12 7 18 17 14 23 -7 13 15 59 28 59 5 0
17 7 26 16 25 26 28 -3 3 -36z m388 -45 c-31 -55 -52 -73 -42 -35 3 10 11 25
19 31 8 6 14 20 14 31 0 11 5 29 11 40 10 19 12 19 20 5 7 -12 1 -32 -22 -72z
m1461 52 c0 -5 -4 -5 -10 -2 -5 3 -10 14 -10 23 0 15 2 15 10 2 5 -8 10 -19
10 -23z m-1560 17 c0 -3 -9 -17 -20 -31 -11 -14 -20 -31 -20 -37 0 -14 -36
-37 -44 -29 -12 12 -6 24 11 21 10 -2 19 7 24 25 4 16 13 35 20 43 12 14 29
19 29 8z m1332 -19 c0 -5 -5 -11 -11 -13 -6 -2 -11 4 -11 13 0 9 5 15 11 13 6
-2 11 -8 11 -13z m-1572 -4 c0 -6 -4 -13 -10 -16 -5 -3 -10 1 -10 9 0 9 5 16
10 16 6 0 10 -4 10 -9z m493 -23 c-3 -18 -23 -67 -44 -108 -42 -85 -59 -139
-59 -190 0 -50 -19 -112 -32 -104 -5 4 -8 21 -5 39 3 17 1 38 -4 46 -6 10 -9
3 -9 -22 0 -39 -27 -126 -41 -135 -6 -3 -7 18 -3 53 7 52 6 57 -8 45 -9 -7
-19 -35 -23 -62 -4 -27 -13 -57 -21 -67 -12 -16 -13 -14 -9 22 7 59 16 99 26
111 6 7 4 16 -4 23 -11 9 -17 3 -30 -27 -9 -20 -19 -47 -22 -60 -4 -12 -11
-20 -16 -16 -5 3 -7 9 -4 14 3 5 0 18 -6 28 -10 16 -8 25 10 50 12 17 29 33
39 37 9 3 37 40 61 83 25 42 58 94 75 114 17 20 51 64 76 97 25 33 48 60 52
61 4 0 5 -15 1 -32z m1197 23 c0 -26 -77 -52 -91 -30 -15 25 -10 30 25 24 20
-4 36 -2 40 4 9 13 26 15 26 2z m-485 -65 c-18 -57 -45 -76 -45 -32 0 13 -7
26 -15 30 -25 9 -17 29 9 22 18 -4 28 0 41 20 25 39 29 22 10 -40z m525 54 c0
-5 -4 -10 -10 -10 -5 0 -10 5 -10 10 0 6 5 10 10 10 6 0 10 -4 10 -10z m-1714
-60 c-19 -33 -25 -38 -28 -24 -4 20 44 94 49 77 2 -6 -7 -29 -21 -53z m-230 7
c-3 -12 -5 -25 -5 -29 -1 -5 -19 -8 -41 -8 l-40 0 36 35 c38 37 56 38 50 2z
m1314 14 c0 -11 -15 -30 -32 -42 -18 -12 -35 -24 -36 -25 -6 -4 32 -53 41 -54
4 0 16 20 27 44 24 57 36 63 49 24 6 -17 11 -32 11 -33 0 -2 -9 -5 -21 -8 -28
-8 -21 -41 10 -45 22 -4 23 -6 16 -60 -7 -59 -37 -133 -61 -153 -21 -17 -19 9
2 33 11 12 19 43 22 92 l4 73 -30 5 c-17 2 -29 1 -26 -4 3 -4 14 -8 26 -8 18
0 20 -4 14 -41 -4 -23 -13 -54 -21 -70 -9 -16 -17 -58 -19 -93 -3 -36 -9 -74
-15 -85 -6 -11 -11 -30 -11 -42 0 -12 -3 -20 -6 -17 -6 7 -9 222 -3 252 2 10
-1 21 -8 23 -6 2 -13 -6 -15 -18 -2 -12 -9 -25 -17 -27 -12 -4 -13 9 -8 74 3
44 10 93 16 109 6 17 13 42 16 57 3 16 17 34 33 42 36 20 42 20 42 -3z m177
-27 c-5 -51 1 -48 32 11 17 33 21 36 21 16 0 -41 -49 -131 -72 -131 -13 0 -10
124 4 138 19 19 21 15 15 -34z m193 36 c0 -5 -4 -10 -9 -10 -14 0 -22 -31 -11
-45 7 -8 4 -17 -10 -30 -24 -22 -26 -35 -5 -35 13 0 14 -4 5 -20 -21 -39 -33
-23 -25 35 4 32 3 55 -3 55 -5 0 -21 -27 -36 -60 -15 -33 -31 -60 -37 -60 -13
0 -11 24 6 56 8 16 15 39 15 51 0 15 13 31 38 47 39 26 72 33 72 16z m-587
-15 c-3 -9 -8 -14 -10 -11 -3 3 -2 9 2 15 9 16 15 13 8 -4z m-603 -9 c0 -20
-46 -73 -55 -64 -10 10 15 69 25 63 5 -3 11 -1 15 5 9 14 15 12 15 -4z m-330
-36 c-6 -11 -17 -20 -26 -20 -12 0 -12 4 -4 20 6 11 17 20 26 20 12 0 12 -4 4
-20z m920 7 c0 -14 -20 -37 -32 -37 -13 0 -9 38 5 43 21 9 27 7 27 -6z m120
-2 c0 -9 -6 -12 -15 -9 -8 4 -15 10 -15 15 0 5 7 9 15 9 8 0 15 -7 15 -15z
m620 0 c0 -8 -4 -15 -10 -15 -5 0 -10 7 -10 15 0 8 5 15 10 15 6 0 10 -7 10
-15z m-640 -20 c7 -8 9 -22 6 -32 -4 -9 -9 -53 -12 -97 -4 -79 -45 -206 -66
-206 -11 0 -10 2 7 43 17 40 20 97 6 97 -5 0 -11 -12 -13 -27 -2 -19 -11 -29
-31 -36 -34 -11 -46 -2 -29 21 6 9 19 33 27 52 9 19 27 47 41 61 19 20 23 33
19 52 -4 14 -2 28 4 31 6 4 11 18 11 32 0 27 12 31 30 9z m-1313 -13 c-10 -10
-17 -24 -17 -30 0 -7 -7 -12 -15 -12 -22 0 -18 27 7 44 31 22 45 20 25 -2z
m101 -2 c-7 -11 -16 -20 -20 -20 -13 0 -9 28 5 33 23 10 27 7 15 -13z m372 7
c0 -7 -31 -67 -35 -67 -2 0 2 16 8 35 6 19 14 35 19 35 4 0 8 -2 8 -3z m772
-31 c-2 -10 2 -24 9 -32 15 -18 -2 -40 -35 -46 -17 -4 -23 -1 -19 9 3 8 -2 13
-16 13 -12 0 -21 -6 -21 -13 0 -17 -38 -52 -47 -44 -3 4 1 15 10 25 10 10 17
25 17 33 1 21 21 44 55 61 36 19 51 17 47 -6z m-1103 -13 c-13 -16 -25 -30
-27 -33 -4 -5 -22 21 -22 33 0 4 9 7 19 7 11 0 23 5 26 10 3 6 11 10 17 10 6
0 1 -12 -13 -27z m412 0 c-8 -15 -10 -15 -11 -2 0 17 10 32 18 25 2 -3 -1 -13
-7 -23z m-254 -25 c-3 -7 -5 -2 -5 12 0 14 2 19 5 13 2 -7 2 -19 0 -25z m-397
12 c0 -5 -5 -10 -11 -10 -5 0 -7 5 -4 10 3 6 8 10 11 10 2 0 4 -4 4 -10z
m-154 -42 c-3 -7 -9 -21 -12 -30 -9 -25 -21 -22 -26 7 -6 29 -2 35 25 35 11 0
16 -5 13 -12z m666 -10 c-7 -7 -12 -8 -12 -2 0 14 12 26 19 19 2 -3 -1 -11 -7
-17z m1194 -26 c-12 -11 -18 7 -10 30 l8 23 4 -23 c2 -13 1 -26 -2 -30z
m-1136 28 c0 -5 -5 -10 -11 -10 -5 0 -7 5 -4 10 3 6 8 10 11 10 2 0 4 -4 4
-10z m1365 -10 c7 -12 -12 -40 -26 -40 -10 0 -12 34 -2 43 9 10 21 9 28 -3z
m-1910 -9 c-14 -12 -73 -25 -60 -13 6 6 19 12 30 15 34 8 40 8 30 -2z m281
-27 c2 -28 2 -28 -3 -2 -3 20 -8 25 -20 21 -11 -4 -14 -3 -9 6 13 20 31 6 32
-25z m174 7 c0 -9 -4 -21 -9 -26 -5 -6 -14 -27 -20 -47 -12 -38 -37 -66 -48
-54 -9 9 15 84 40 122 22 33 37 36 37 5z m-118 2 c-35 -78 -45 -95 -67 -109
-14 -9 -33 -29 -41 -43 l-15 -26 7 25 c10 39 44 90 60 90 8 0 21 15 29 33 12
29 24 47 31 47 2 0 0 -8 -4 -17z m1416 5 c-2 -6 -10 -14 -16 -16 -7 -2 -10 2
-6 12 7 18 28 22 22 4z m-117 -20 c-4 -13 -11 -44 -15 -70 -4 -27 -12 -48 -18
-48 -14 0 -1 88 18 118 8 12 16 22 19 22 2 0 1 -10 -4 -22z m-1396 2 c-3 -5
-12 -10 -18 -10 -7 0 -6 4 3 10 19 12 23 12 15 0z m1014 -26 c-21 -43 -48 -74
-62 -74 -6 0 -1 10 10 23 11 12 28 37 37 55 9 17 20 32 25 32 5 0 1 -16 -10
-36z m541 26 c0 -5 -5 -10 -11 -10 -5 0 -7 5 -4 10 3 6 8 10 11 10 2 0 4 -4 4
-10z m-1990 -20 c0 -5 -8 -10 -17 -10 -15 0 -16 2 -3 10 19 12 20 12 20 0z
m130 -35 c-10 -12 -9 -16 4 -21 17 -7 22 -34 6 -34 -5 0 -10 4 -10 9 0 5 -6
16 -14 24 -13 12 -13 17 1 38 11 14 18 18 21 11 2 -7 -2 -19 -8 -27z m263 20
c-3 -9 -8 -14 -10 -11 -3 3 -2 9 2 15 9 16 15 13 8 -4z m327 6 c0 -5 -7 -11
-15 -15 -15 -5 -20 5 -8 17 9 10 23 9 23 -2z m642 -33 c-7 -7 -12 -8 -12 -2 0
14 12 26 19 19 2 -3 -1 -11 -7 -17z m553 -5 c-2 -16 -10 -46 -19 -68 l-15 -40
4 50 c2 28 7 58 10 68 11 27 24 20 20 -10z m-1687 -50 c-34 -81 -37 -88 -37
-73 -1 15 25 95 36 113 14 22 14 -7 1 -40z m1754 25 c-6 -6 -15 -8 -19 -4 -4
4 -1 11 7 16 8 5 17 7 19 4 3 -2 -1 -10 -7 -16z m-1307 -27 c-4 -17 -11 -31
-16 -31 -9 0 -3 43 8 63 10 17 15 -3 8 -32z m41 2 c-11 -11 -17 4 -9 23 7 18
8 18 11 1 2 -10 1 -21 -2 -24z m-229 -10 c-9 -9 -19 -14 -22 -11 -3 3 2 13 11
22 9 9 19 14 22 11 3 -3 -2 -13 -11 -22z m2603 13 c0 -3 -4 -8 -10 -11 -5 -3
-10 -1 -10 4 0 6 5 11 10 11 6 0 10 -2 10 -4z m-2959 -43 c-10 -17 -10 -16
-11 3 0 23 13 41 18 25 2 -6 -1 -18 -7 -28z m208 7 c11 -24 11 -24 -3 -6 -9
11 -16 24 -16 30 0 12 5 7 19 -24z m1139 10 c-14 -22 -24 -19 -15 5 4 8 11 15
17 15 6 0 6 -7 -2 -20z m138 -15 c7 -27 -10 -55 -32 -55 -17 0 -17 8 -3 49 13
37 26 40 35 6z m-366 -50 c-16 -43 -23 -23 -9 26 9 31 14 38 16 23 2 -11 -1
-33 -7 -49z m-640 22 c0 -19 -30 -57 -45 -57 -9 0 8 65 19 72 19 13 26 9 26
-15z m1230 -47 c-19 -35 -24 -14 -9 32 13 39 14 41 17 16 2 -15 -2 -37 -8 -48z
m-1420 52 c0 -4 -9 -13 -20 -20 -22 -13 -27 -3 -8 16 14 14 28 16 28 4z m931
-23 c-9 -22 -10 -22 -10 -3 -1 11 2 24 6 27 12 12 14 0 4 -24z m-639 -9 c-12
-12 -22 -18 -22 -14 0 12 33 45 38 39 3 -3 -4 -14 -16 -25z m701 -38 c-3 -31
-12 -64 -20 -72 -13 -13 -14 -12 -8 10 8 24 10 43 13 103 1 16 6 26 11 22 5
-3 7 -31 4 -63z m69 40 c-7 -2 -12 -12 -12 -22 0 -9 -7 -23 -15 -30 -12 -10
-15 -9 -15 7 0 24 43 79 49 62 2 -7 -1 -15 -7 -17z m-951 -19 c-8 -15 -10 -15
-11 -2 0 17 10 32 18 25 2 -3 -1 -13 -7 -23z m440 -24 c-10 -23 -10 -23 -10 7
-1 17 2 34 7 38 11 12 14 -18 3 -45z m2020 -2 c-6 -15 -15 -27 -21 -27 -16 0
-12 40 5 46 8 4 16 14 16 23 1 14 2 14 6 0 2 -8 -1 -28 -6 -42z m-875 16 c-10
-10 -19 5 -10 18 6 11 8 11 12 0 2 -7 1 -15 -2 -18z m284 11 c0 -8 -5 -12 -10
-9 -6 4 -8 11 -5 16 9 14 15 11 15 -7z m-2199 -21 c-12 -20 -14 -14 -5 12 4 9
9 14 11 11 3 -2 0 -13 -6 -23z m2835 1 c-8 -21 3 -56 15 -49 5 4 9 -5 9 -18 0
-28 -20 -41 -35 -23 -21 25 -27 92 -7 89 6 -2 12 2 12 7 0 6 3 10 6 10 3 0 3
-7 0 -16z m-2306 -34 c-16 -31 -23 -19 -9 16 6 16 13 24 16 17 2 -7 -1 -22 -7
-33z m356 -27 c-11 -29 -17 -6 -9 33 7 36 8 37 11 11 2 -16 1 -36 -2 -44z
m520 41 c-3 -9 -6 -18 -6 -20 0 -3 -4 -3 -10 1 -11 7 -2 35 12 35 6 0 7 -7 4
-16z m-1096 2 c0 -11 -19 -15 -25 -6 -3 5 1 10 9 10 9 0 16 -2 16 -4z m1025
-45 c-14 -41 -44 -101 -45 -90 0 4 7 24 16 45 9 22 20 49 25 62 15 39 19 24 4
-17z m-753 7 c-6 -6 -15 -8 -19 -4 -4 4 -1 11 7 16 8 5 17 7 19 4 3 -2 -1 -10
-7 -16z m-250 -30 c-7 -7 -12 -8 -12 -2 0 14 12 26 19 19 2 -3 -1 -11 -7 -17z
m111 2 c-3 -11 -12 -20 -19 -20 -16 0 -16 2 -8 24 9 24 33 20 27 -4z m1167 -5
c0 -8 -4 -15 -10 -15 -5 0 -10 -8 -10 -19 0 -10 -6 -24 -14 -30 -15 -12 -13
-4 10 62 8 21 24 23 24 2z m1170 5 c0 -5 -4 -10 -10 -10 -5 0 -10 5 -10 10 0
6 5 10 10 10 6 0 10 -4 10 -10z m-9 -30 c10 0 19 5 19 10 0 6 7 10 15 10 8 0
15 -6 15 -13 0 -8 10 -19 23 -25 l22 -11 -22 0 c-34 -1 -38 0 -35 10 5 19 -16
8 -32 -16 -16 -24 -16 -25 4 -25 11 0 20 5 20 10 0 6 13 4 30 -5 16 -8 37 -15
47 -15 15 0 16 -2 3 -10 -13 -9 -13 -11 0 -19 8 -6 12 -11 10 -13 -44 -28 -50
-28 -50 -3 0 30 -7 31 -40 4 -15 -12 -19 -19 -10 -18 31 3 40 -2 40 -21 0 -10
8 -24 18 -29 15 -9 14 -11 -8 -11 l-25 -1 23 -10 c22 -8 28 -33 8 -29 -13 3
-28 -28 -21 -41 5 -6 11 -4 19 6 7 10 21 16 31 14 17 -4 17 -5 2 -20 -18 -18
-13 -31 9 -22 12 4 14 -5 13 -45 -2 -45 -5 -51 -22 -49 -16 2 -24 -8 -36 -43
-9 -25 -20 -51 -25 -59 -6 -10 -6 -16 2 -19 21 -7 -9 -40 -31 -34 -14 4 -18 0
-15 -14 2 -12 14 -21 32 -24 29 -5 29 -6 11 -23 -12 -13 -21 -15 -28 -8 -17
17 -42 14 -28 -2 6 -8 8 -17 5 -20 -3 -3 -2 -12 2 -19 4 -7 7 -27 5 -45 -2
-26 1 -33 15 -33 14 0 15 -3 6 -12 -9 -9 -6 -18 15 -40 25 -26 21 -42 -4 -17
-7 7 -19 9 -29 5 -15 -6 -16 -8 0 -25 20 -22 11 -34 -14 -19 -14 9 -22 8 -35
-6 -12 -11 -14 -21 -8 -27 7 -7 15 -5 26 5 13 14 16 14 28 0 10 -12 9 -18 -5
-32 -16 -16 -17 -16 -10 1 4 12 1 17 -10 17 -9 0 -19 -7 -22 -15 -4 -10 -14
-13 -29 -9 -13 3 -26 1 -29 -5 -4 -6 1 -11 11 -11 11 0 24 -5 31 -12 9 -9 12
-9 12 1 0 9 12 12 39 9 34 -3 40 0 51 26 13 29 14 29 21 8 10 -26 3 -48 -17
-56 -7 -3 -11 -12 -8 -21 3 -8 1 -15 -5 -15 -6 0 -11 6 -11 14 0 16 -27 29
-41 20 -5 -3 0 -21 12 -40 l21 -34 -27 10 c-34 13 -54 1 -24 -14 27 -13 41
-43 15 -33 -18 7 -40 -21 -50 -66 -5 -19 -12 -27 -21 -24 -7 3 -19 -1 -27 -10
-11 -14 -10 -16 7 -11 11 3 29 9 39 14 14 5 17 4 12 -4 -4 -7 -1 -12 8 -12 8
0 18 -5 21 -10 4 -7 -7 -8 -32 -5 -35 6 -40 3 -60 -29 -18 -29 -20 -35 -7 -40
10 -4 16 3 21 25 6 33 19 34 41 0 15 -22 14 -22 -13 -15 -27 7 -28 6 -21 -22
4 -16 12 -30 17 -32 15 -6 10 -22 -6 -22 -8 0 -15 8 -15 18 -1 12 -5 9 -16
-11 -17 -32 -10 -54 12 -36 11 9 14 8 14 -4 0 -18 -61 -34 -80 -22 -9 6 -10
-1 -5 -24 5 -24 3 -31 -9 -31 -9 0 -16 -4 -16 -10 0 -5 5 -10 10 -10 6 0 10
-11 10 -24 0 -19 -6 -26 -27 -29 -26 -4 -26 -4 5 -6 17 0 32 -5 32 -11 0 -5
-5 -10 -10 -10 -6 0 -8 -11 -6 -25 5 -25 -9 -36 -16 -13 -6 17 -28 0 -28 -23
0 -10 7 -19 15 -19 8 0 15 -4 15 -10 0 -5 -10 -10 -23 -10 -16 0 -23 -6 -24
-20 -2 -24 19 -26 37 -5 19 23 27 18 26 -15 -1 -28 -4 -30 -28 -25 -32 7 -47
-10 -16 -18 21 -6 21 -7 3 -27 -14 -15 -21 -17 -32 -9 -7 6 -14 9 -14 5 -7
-32 -21 -56 -30 -50 -5 3 -19 -4 -31 -16 -13 -11 -36 -32 -53 -45 -24 -20 -27
-25 -11 -25 20 0 90 40 139 81 36 30 88 44 80 22 -3 -7 -9 -13 -15 -13 -5 0
-7 -4 -3 -10 3 -5 -11 -18 -31 -28 -33 -17 -35 -20 -20 -35 10 -9 12 -18 6
-22 -5 -3 -10 -2 -10 4 0 6 -7 8 -15 5 -9 -4 -15 0 -15 7 0 11 -2 11 -10 -1
-5 -9 -5 -19 1 -26 13 -15 -21 -44 -57 -48 -21 -2 -30 -9 -32 -25 -3 -17 2
-21 25 -21 15 0 37 -7 47 -15 19 -14 18 -15 -11 -26 -17 -6 -34 -17 -37 -25
-3 -8 -16 -14 -29 -14 -28 0 -43 -14 -52 -52 -6 -23 -10 -26 -30 -18 -20 8
-25 4 -40 -26 -9 -19 -20 -34 -26 -34 -14 0 -58 -52 -59 -70 0 -13 -39 -47
-43 -38 -16 33 -28 43 -51 41 -14 -1 -26 2 -26 8 0 5 5 9 11 9 17 0 48 43 49
68 0 12 -5 22 -11 22 -6 0 -8 -9 -4 -20 5 -16 2 -20 -18 -20 -14 0 -27 7 -31
15 -6 18 -26 20 -26 3 0 -6 7 -20 17 -30 16 -18 9 -24 -21 -19 -4 1 -15 -4
-24 -11 -14 -12 -15 -8 -8 30 5 34 3 44 -10 49 -9 3 -19 1 -23 -5 -4 -7 -23
-14 -41 -17 -33 -5 -33 -4 14 19 37 19 54 22 73 15 32 -12 33 -12 33 7 0 12
-6 15 -26 10 -24 -6 -26 -5 -20 18 5 19 1 28 -13 35 -24 14 -34 38 -21 59 9
16 9 16 10 1 0 -30 120 -69 120 -39 0 6 -7 10 -15 10 -9 0 -12 6 -9 15 4 10 0
15 -11 15 -24 0 -13 24 13 28 12 2 22 9 22 16 0 13 -52 16 -61 2 -10 -13 -29
3 -29 25 0 20 -34 28 -44 10 -10 -15 -56 -20 -56 -5 0 14 35 28 49 19 6 -3 18
6 27 20 l16 25 26 -20 c24 -19 26 -19 44 -3 15 13 16 19 6 22 -24 8 -27 25 -7
44 27 25 25 51 -3 43 -13 -3 -36 -6 -51 -6 -24 0 -27 -3 -22 -21 6 -19 4 -21
-14 -16 -11 3 -21 2 -21 -1 0 -4 -11 -20 -24 -35 -23 -27 -25 -27 -65 -15 -50
16 -52 25 -6 34 19 3 35 11 35 16 0 6 7 7 16 4 10 -4 15 0 14 12 -3 22 10 62
19 62 4 0 13 -6 20 -12 11 -11 12 -10 6 1 -4 8 -2 17 6 22 12 7 11 9 -1 9 -13
0 -13 1 0 10 12 7 12 10 -4 16 -12 5 -23 2 -31 -9 -7 -10 -24 -17 -39 -17 -16
0 -26 -5 -26 -15 0 -8 -4 -15 -10 -15 -5 0 -10 5 -10 10 0 6 -5 10 -11 10 -6
0 -9 -7 -5 -15 4 -11 -1 -14 -19 -13 -32 3 -31 10 5 45 17 15 30 36 30 45 0
11 7 16 20 15 24 -2 26 -12 5 -21 -8 -3 -15 -9 -15 -15 0 -12 44 -23 48 -11 2
6 10 10 17 10 8 0 15 13 17 32 4 41 24 47 31 8 8 -38 27 -39 27 -2 0 29 31 68
43 55 4 -3 18 4 31 16 15 14 30 20 37 15 9 -5 11 -1 7 14 -3 12 -3 21 1 20 28
-3 51 4 51 17 0 9 10 15 23 16 18 1 18 2 4 6 -11 3 -16 11 -13 19 3 8 1 14 -4
14 -6 0 -10 -4 -10 -9 0 -5 -14 -14 -30 -21 -27 -11 -32 -11 -45 6 -13 19 -14
19 -21 -1 -13 -35 -36 -55 -66 -55 -30 0 -35 -9 -16 -28 6 -6 8 -15 4 -19 -4
-5 -13 0 -20 9 -9 12 -16 14 -23 7 -6 -6 -18 -9 -26 -7 -23 5 -3 48 23 48 13
0 26 12 37 35 9 19 22 35 29 35 7 0 16 5 20 12 5 8 2 9 -10 5 -10 -4 -24 1
-36 13 -24 24 -26 34 -5 26 9 -3 15 0 15 9 0 8 -7 15 -16 15 -9 0 -14 6 -11
13 2 6 17 11 32 10 19 -2 33 5 42 17 8 11 21 20 29 20 8 0 14 5 14 11 0 8 -13
10 -37 6 -31 -5 -35 -4 -23 6 24 20 41 55 30 62 -15 9 -2 25 21 25 11 0 19 7
19 16 0 15 23 44 34 44 3 0 6 -7 6 -15 0 -8 5 -15 10 -15 6 0 8 11 4 25 -6 26
4 33 23 14 13 -13 36 -3 28 12 -4 5 -17 9 -31 9 -23 0 -27 8 -23 48 0 7 12 7
39 1 11 -3 14 3 12 24 -3 20 1 27 14 27 13 0 14 3 4 15 -14 17 -5 35 19 35 10
0 24 11 31 25 7 13 16 22 20 20 4 -2 21 0 38 4 19 6 33 6 36 0 2 -5 3 -4 2 3
-1 7 -12 14 -24 16 -25 4 -25 4 -11 55 5 20 15 37 22 37 7 0 6 4 -3 10 -23 15
-33 12 -28 -8 3 -10 -1 -23 -8 -30 -7 -6 -17 -19 -22 -29 -9 -15 -12 -15 -27
-3 -14 12 -17 10 -22 -8 -3 -12 -9 -22 -14 -22 -5 0 -9 -7 -9 -16 0 -20 -24
-13 -28 9 -5 26 35 62 71 62 27 0 31 4 31 25 0 20 -4 24 -22 22 -14 -2 -22 2
-22 12 0 18 30 36 60 36 12 0 24 9 30 24 5 13 19 28 32 32 21 6 19 8 -17 19
l-40 11 33 12 c18 6 38 9 46 6 7 -3 18 7 24 21 17 36 17 36 -28 29 -26 -4 -40
-3 -40 4 0 6 7 9 15 6 9 -4 15 0 15 10 0 9 7 16 15 16 8 0 15 7 15 15 0 7 8
19 18 24 14 9 15 12 3 20 -19 13 18 32 47 24 22 -5 31 10 12 22 -6 4 -5 14 3
28 16 30 29 38 50 31 9 -3 17 -1 17 4 0 6 -8 13 -17 17 -16 6 -15 8 5 16 17 7
22 15 20 36 -2 20 1 27 12 25 8 -2 20 4 26 13 13 17 7 58 -6 50 -5 -3 -11 -1
-15 5 -3 5 -1 10 4 10 17 0 13 21 -6 36 -17 13 -17 13 0 14 10 0 22 -11 27
-25 5 -14 16 -25 24 -25 24 0 28 18 7 32 -15 9 -17 16 -10 30 12 23 30 23 60
0 13 -11 41 -22 63 -25 35 -6 37 -5 20 8 -11 8 -25 15 -32 15 -7 0 -15 7 -18
15 -4 8 -12 15 -20 15 -16 0 -19 16 -4 25 6 3 13 -1 16 -9 8 -20 25 -20 50 -1
16 12 17 16 4 24 -8 5 -28 7 -45 5 -29 -5 -29 -5 -11 10 11 9 27 16 35 16 9 1
-1 7 -22 15 -44 15 -53 22 -44 32 4 4 13 1 19 -5 17 -17 48 -15 48 2 0 8 -6
17 -12 19 -10 4 -9 8 2 16 8 6 11 11 7 11 -5 0 -5 6 0 13 5 9 8 7 11 -5 2 -10
12 -18 23 -18z m-2349 -51 c-7 -41 -9 -42 -20 -23 -9 18 -9 24 3 34 8 7 15 19
15 28 0 8 2 13 5 11 2 -3 1 -25 -3 -50z m128 32 c0 -17 -27 -37 -37 -27 -7 7
17 46 27 46 6 0 10 -9 10 -19z m309 -25 c-6 -21 -12 -36 -14 -34 -3 2 0 21 6
42 6 21 12 36 14 34 3 -2 0 -21 -6 -42z m343 -51 c-2 -14 -6 -25 -8 -25 -2 0
-4 11 -4 25 0 14 4 25 9 25 4 0 6 -11 3 -25z m-48 -40 c-4 -8 -8 -15 -10 -15
-2 0 -4 7 -4 15 0 8 4 15 10 15 5 0 7 -7 4 -15z m-253 -46 c-6 -16 -10 -18
-10 -7 -1 22 12 55 16 42 2 -6 -1 -22 -6 -35z m1719 27 c0 -2 -7 -6 -15 -10
-8 -3 -15 -1 -15 4 0 6 7 10 15 10 8 0 15 -2 15 -4z m-1323 -98 c-3 -8 -6 -5
-6 6 -1 11 2 17 5 13 3 -3 4 -12 1 -19z m1293 -34 c0 -2 -7 -4 -15 -4 -8 0
-15 4 -15 10 0 5 7 7 15 4 8 -4 15 -8 15 -10z m318 -172 c2 -7 -5 -12 -17 -12
-14 0 -19 5 -14 15 6 17 25 15 31 -3z m-93 -212 c3 -5 -1 -10 -9 -10 -9 0 -16
5 -16 10 0 6 4 10 9 10 6 0 13 -4 16 -10z m60 0 c3 -5 1 -10 -4 -10 -6 0 -11
5 -11 10 0 6 2 10 4 10 3 0 8 -4 11 -10z m-589 -37 c-7 -7 -26 7 -26 19 0 6 6
6 15 -2 9 -7 13 -15 11 -17z m14 -23 c13 -9 13 -11 0 -20 -22 -15 -30 -12 -30
10 0 22 8 25 30 10z m-75 -110 c3 -5 -3 -10 -15 -10 -12 0 -18 5 -15 10 3 6
10 10 15 10 5 0 12 -4 15 -10z m-38 -42 c-3 -8 -6 -5 -6 6 -1 11 2 17 5 13 3
-3 4 -12 1 -19z m-32 -48 c0 -7 -6 -15 -12 -17 -8 -3 -13 4 -13 17 0 13 5 20
13 18 6 -3 12 -11 12 -18z m-36 -62 c1 -5 -8 -8 -19 -8 -22 0 -26 20 -8 38 10
10 14 9 20 -5 3 -10 7 -21 7 -25z m48 -24 c-3 -3 -12 -4 -19 -1 -8 3 -5 6 6 6
11 1 17 -2 13 -5z m-72 -84 c-3 -5 -11 -10 -16 -10 -6 0 -7 5 -4 10 3 6 11 10
16 10 6 0 7 -4 4 -10z m-38 -69 c-19 -7 -31 18 -16 35 12 15 14 15 19 -7 4
-13 2 -26 -3 -28z m-42 -91 c4 -6 2 -16 -3 -23 -5 -7 -13 -27 -17 -45 -8 -38
-28 -33 -21 6 2 15 5 29 7 32 2 5 6 20 8 33 2 11 19 9 26 -3z m725 -4 c0 -3
-4 -8 -10 -11 -5 -3 -10 -1 -10 4 0 6 5 11 10 11 6 0 10 -2 10 -4z m-800 -41
c-6 -8 -9 -19 -5 -25 3 -5 2 -10 -4 -10 -20 0 -24 23 -6 37 24 17 30 17 15 -2z
m1 -94 c-9 -6 -10 -11 -2 -15 6 -4 11 -16 11 -26 0 -10 5 -20 11 -22 12 -4 -9
-58 -23 -58 -11 0 -10 7 2 30 7 13 7 21 0 25 -5 3 -10 15 -10 25 0 28 -35 35
-59 11 -21 -21 -47 -29 -36 -11 3 6 13 10 21 10 8 0 14 6 14 14 0 15 19 23 60
25 18 0 21 -2 11 -8z m704 -11 c3 -5 -1 -10 -10 -10 -9 0 -13 5 -10 10 3 6 8
10 10 10 2 0 7 -4 10 -10z m-24 -33 c-1 -12 -15 -9 -19 4 -3 6 1 10 8 8 6 -3
11 -8 11 -12z m23 -69 c-3 -5 -12 -1 -20 9 -20 27 -17 39 6 18 11 -10 17 -22
14 -27z m-779 2 c-3 -5 -10 -10 -16 -10 -5 0 -9 5 -9 10 0 6 7 10 16 10 8 0
12 -4 9 -10z m775 -41 c0 -5 -4 -9 -10 -9 -5 0 -10 7 -10 16 0 8 5 12 10 9 6
-3 10 -10 10 -16z m-782 -38 c-5 -24 -33 -19 -36 6 -3 17 1 20 18 16 12 -3 20
-12 18 -22z m-68 -66 c0 -33 -4 -45 -15 -45 -17 0 -20 16 -5 25 6 4 9 20 6 36
-2 16 0 29 5 29 5 0 9 -20 9 -45z m70 11 c0 -11 -19 -15 -25 -6 -3 5 1 10 9
10 9 0 16 -2 16 -4z m60 -10 c0 -8 -4 -17 -8 -20 -4 -2 -8 4 -8 15 0 10 4 19
8 19 4 0 8 -6 8 -14z m690 10 c0 -3 -4 -8 -10 -11 -5 -3 -10 -1 -10 4 0 6 5
11 10 11 6 0 10 -2 10 -4z m34 -93 c9 -23 -5 -33 -33 -22 -23 9 -24 10 -5 24
25 19 31 18 38 -2z m-620 -110 c-9 -36 -11 -38 -28 -24 -12 10 -17 8 -26 -9
-8 -15 -15 -19 -22 -12 -13 13 -2 32 17 32 8 0 19 9 25 20 17 31 42 26 34 -7z
m536 -53 c0 -5 -5 -10 -11 -10 -5 0 -7 5 -4 10 3 6 8 10 11 10 2 0 4 -4 4 -10z
m-698 -16 c7 -7 -13 -74 -23 -74 -4 0 -10 7 -13 16 -5 14 -9 12 -25 -7 -19
-23 -20 -23 -27 -5 -5 12 -3 21 4 24 7 2 10 8 6 13 -10 18 6 30 27 19 15 -9
21 -7 25 5 6 15 16 19 26 9z m678 -19 c0 -4 -60 -35 -68 -35 -3 0 2 8 11 18
14 15 57 28 57 17z m-853 -19 c-7 -17 16 -39 28 -28 5 4 5 2 1 -5 -4 -8 -18
-10 -36 -6 -36 7 -42 -13 -8 -26 21 -8 21 -8 -5 -13 -22 -4 -27 -1 -27 14 0
12 -4 17 -12 12 -6 -4 2 9 18 29 29 37 51 49 41 23z m243 -26 c0 -11 -40 -50
-52 -50 -10 0 -2 16 20 43 17 19 32 22 32 7z m84 -31 c-3 -5 -11 -9 -17 -9
-14 0 -38 35 -30 43 8 9 54 -24 47 -34z m-1410 17 c-21 -15 -30 -14 -19 3 3 6
14 11 23 11 13 0 13 -2 -4 -14z m871 4 c3 -5 1 -10 -4 -10 -6 0 -11 5 -11 10
0 6 2 10 4 10 3 0 8 -4 11 -10z m-435 -10 c0 -5 -7 -10 -16 -10 -8 0 -12 5 -9
10 3 6 10 10 16 10 5 0 9 -4 9 -10z m802 -22 c-7 -7 -12 -8 -12 -2 0 14 12 26
19 19 2 -3 -1 -11 -7 -17z m-1755 -50 c-3 -7 -5 -2 -5 12 0 14 2 19 5 13 2 -7
2 -19 0 -25z m2399 -19 c-14 -11 -32 -26 -39 -33 -18 -18 -47 -27 -47 -15 0 6
-5 7 -10 4 -6 -4 -8 -10 -5 -14 2 -5 -1 -15 -8 -24 -15 -19 -57 -32 -57 -18 0
18 62 81 80 81 10 0 23 7 30 15 12 14 71 36 79 29 2 -2 -8 -13 -23 -25z
m-1980 0 c3 -5 -4 -9 -14 -9 -11 0 -22 6 -25 14 -4 10 0 12 14 9 11 -3 22 -9
25 -14z m57 14 c-7 -2 -19 -2 -25 0 -7 3 -2 5 12 5 14 0 19 -2 13 -5z m-193
-18 c0 -11 7 -14 23 -10 12 3 34 2 47 -4 14 -5 18 -10 10 -11 -8 -1 -30 -3
-48 -4 -23 -3 -35 1 -42 14 -13 24 -13 30 0 30 6 0 10 -7 10 -15z m-343 -29
c4 13 51 6 72 -10 11 -8 15 -8 18 2 7 19 23 14 23 -8 0 -11 5 -20 10 -20 6 0
10 -10 10 -22 0 -21 0 -21 -14 -2 -16 21 -32 14 -23 -11 6 -15 57 -22 57 -7 0
11 51 14 64 4 15 -12 53 -13 80 -2 19 7 22 5 22 -12 -1 -12 5 -23 12 -25 7 -3
12 4 12 18 l0 22 18 -21 c16 -18 23 -19 66 -10 43 9 50 8 70 -11 26 -25 36
-26 36 -6 0 12 4 13 19 5 11 -5 32 -10 47 -10 l27 0 -22 -24 c-16 -17 -19 -26
-11 -31 9 -6 9 -10 -1 -16 -14 -9 -13 -9 19 -9 4 0 7 5 7 10 0 13 25 30 43 30
8 0 10 -8 6 -27 -6 -22 -4 -25 9 -20 9 3 19 2 22 -4 4 -5 -2 -12 -12 -16 -14
-6 -10 -9 17 -14 19 -4 42 -3 52 2 10 6 19 5 23 -1 7 -11 -37 -42 -56 -38 -7
2 -15 -5 -17 -15 -3 -14 2 -17 29 -15 18 2 34 -2 36 -9 3 -8 -4 -13 -16 -13
-23 0 -24 -4 -11 -35 7 -17 9 -17 9 -2 1 21 21 23 21 2 0 -13 7 -15 36 -9 29
5 36 4 32 -7 -6 -16 18 -69 31 -69 10 0 26 19 34 41 4 12 0 15 -19 11 -26 -5
-34 15 -10 24 8 3 12 13 9 24 -3 10 0 21 6 24 11 7 3 37 -13 48 -8 5 -8 8 0 8
7 0 24 -16 38 -35 26 -33 26 -35 7 -35 -22 0 -28 -14 -11 -25 14 -9 1 -87 -17
-101 -19 -16 -62 4 -69 33 -4 13 -10 21 -14 18 -5 -3 -5 -19 0 -35 5 -18 5
-32 -1 -36 -11 -6 -2 -24 12 -24 5 0 9 9 9 20 0 11 5 20 10 20 6 0 10 -11 10
-25 0 -17 -9 -29 -31 -41 -17 -8 -28 -11 -25 -5 4 6 1 11 -8 11 -8 0 -17 -6
-19 -12 -4 -9 -8 -10 -14 -2 -9 13 -45 15 -37 2 3 -4 12 -8 20 -8 23 0 11 -23
-19 -38 -15 -7 -27 -17 -27 -23 0 -5 -9 -9 -19 -9 -10 0 -21 -7 -25 -15 -3 -8
-17 -15 -31 -15 -16 0 -25 -6 -25 -16 0 -10 8 -15 23 -14 38 3 47 1 47 -14 0
-8 6 -17 13 -20 6 -3 1 -5 -13 -5 -51 2 -60 -2 -75 -31 -9 -16 -22 -30 -29
-30 -8 0 -16 -7 -20 -15 -3 -8 -12 -15 -19 -15 -8 0 -20 -7 -27 -15 -18 -22
-80 -20 -80 3 0 13 -3 11 -13 -7 -20 -40 -37 -37 -38 6 -1 21 -1 45 0 55 3 25
-20 33 -26 9 -3 -14 -9 -18 -17 -13 -16 12 -64 13 -71 2 -3 -6 -3 -11 2 -11 4
-1 19 -3 33 -6 14 -2 34 -4 45 -4 14 0 16 -2 7 -8 -11 -6 -11 -17 -4 -45 6
-21 7 -36 1 -36 -5 0 -9 5 -9 11 0 7 -10 9 -26 5 -22 -6 -25 -4 -19 14 5 16 2
20 -19 20 -14 0 -29 6 -33 13 -5 7 -29 12 -58 12 -42 0 -50 3 -47 18 2 10 -3
17 -13 17 -8 0 -15 -5 -15 -11 0 -7 -10 -5 -26 6 -20 13 -28 14 -40 4 -11 -9
-18 -9 -32 3 -9 8 -30 20 -46 26 -23 10 -26 15 -16 27 7 8 23 15 36 15 18 0
24 6 24 21 0 15 -5 19 -16 15 -8 -3 -32 5 -52 19 -20 14 -46 25 -57 25 -27 0
-49 15 -41 28 3 6 20 13 36 17 47 10 33 60 -17 60 -25 0 -28 3 -26 29 1 17 9
34 18 38 17 10 21 78 5 78 -6 0 -8 -10 -5 -23 4 -15 1 -28 -9 -37 -14 -11 -16
-9 -14 11 2 18 -2 24 -17 24 -29 1 -95 37 -95 52 0 18 27 16 34 -2 7 -19 36
-19 61 -2 17 13 17 15 -4 36 -22 22 -23 22 -36 4 -17 -23 -30 -11 -16 15 6 11
8 28 5 36 -5 12 1 16 24 16 26 0 29 3 24 25 -4 22 -1 25 26 25 19 0 39 9 52
22 28 30 19 33 -31 9 -29 -14 -46 -18 -53 -11 -17 17 -29 11 -23 -11 8 -32 -2
-52 -19 -38 -10 8 -12 22 -8 46 4 23 2 38 -5 42 -8 6 -9 15 -2 34 12 31 19 33
47 12 25 -19 68 -20 61 -1 -3 8 2 16 14 19 10 3 19 12 19 21 0 9 5 16 11 16 5
0 8 -4 4 -9 -3 -5 0 -13 6 -17 6 -3 15 0 20 7 6 11 9 10 15 -4 4 -10 13 -16
21 -13 8 3 11 1 8 -4 -10 -17 19 -10 43 9 36 31 29 51 -18 51 -22 0 -40 4 -40
8 0 17 13 21 32 9 15 -9 22 -9 25 -1z m621 1 c7 -8 7 -17 -2 -30 -19 -24 -27
-21 -20 8 3 14 2 25 -4 25 -14 0 -33 -26 -25 -33 3 -4 4 -7 0 -7 -15 0 -16 20
-1 34 19 19 38 20 52 3z m877 -6 c-3 -6 -11 -8 -17 -5 -6 4 -5 9 3 15 16 10
23 4 14 -10z m-1246 -8 c-21 -28 -23 -29 -16 -11 3 9 1 19 -6 22 -7 2 -1 5 12
5 21 1 22 -1 10 -16z m1631 2 c-7 -9 -15 -13 -17 -11 -7 7 7 26 19 26 6 0 6
-6 -2 -15z m-1176 -10 c-4 -8 -1 -15 5 -15 6 0 11 -4 11 -10 0 -5 -11 -10 -25
-10 -14 0 -25 -4 -25 -9 0 -6 -9 -9 -20 -8 -27 2 -26 27 1 27 12 0 23 8 26 20
3 11 11 20 19 20 8 0 11 -6 8 -15z m141 -31 c0 -10 -8 -20 -18 -22 -22 -4 -35
27 -16 39 20 12 34 5 34 -17z m45 16 c0 -5 -7 -10 -16 -10 -8 0 -12 5 -9 10 3
6 10 10 16 10 5 0 9 -4 9 -10z m530 -15 c0 -11 8 -13 30 -8 19 3 30 1 30 -6 0
-6 -7 -11 -15 -11 -8 0 -16 -8 -16 -17 -1 -17 -2 -17 -6 0 -4 15 -15 21 -35
18 -5 0 -8 8 -8 19 0 11 5 20 10 20 6 0 10 -7 10 -15z m-1565 -5 c3 -5 1 -10
-4 -10 -6 0 -11 5 -11 10 0 6 2 10 4 10 3 0 8 -4 11 -10z m639 -22 c-8 -13
-51 -9 -63 5 -6 8 -9 16 -6 19 8 8 74 -15 69 -24z m1941 22 c-3 -5 -11 -10
-16 -10 -6 0 -7 5 -4 10 3 6 11 10 16 10 6 0 7 -4 4 -10z m-2050 -10 c17 14
32 -7 17 -22 -13 -13 -43 7 -41 26 0 6 3 6 6 -2 4 -9 8 -10 18 -2z m1885 -10
c0 -5 -4 -10 -10 -10 -5 0 -10 5 -10 10 0 6 5 10 10 10 6 0 10 -4 10 -10z
m-930 -20 c0 -5 -5 -10 -11 -10 -5 0 -7 5 -4 10 3 6 8 10 11 10 2 0 4 -4 4
-10z m75 -11 c0 -8 -10 -15 -22 -17 -25 -4 -30 7 -11 26 15 15 33 10 33 -9z
m521 -21 c4 -6 2 -14 -4 -16 -7 -2 -10 -8 -6 -13 6 -11 -13 -11 -40 0 -19 7
-19 8 3 14 20 5 21 8 11 27 -11 20 -10 21 9 11 11 -6 23 -16 27 -23z m-1146 7
c14 -16 10 -18 -14 -9 -9 3 -16 10 -16 15 0 14 16 11 30 -6z m140 6 c0 -6 -4
-13 -10 -16 -5 -3 -10 1 -10 9 0 9 5 16 10 16 6 0 10 -4 10 -9z m110 -1 c0 -5
-12 -10 -27 -10 -22 0 -25 2 -13 10 20 13 40 13 40 0z m140 0 c0 -5 -5 -10
-11 -10 -5 0 -7 5 -4 10 3 6 8 10 11 10 2 0 4 -4 4 -10z m667 -16 c-9 -9 -28
6 -21 18 4 6 10 6 17 -1 6 -6 8 -13 4 -17z m-717 6 c0 -5 -4 -10 -9 -10 -6 0
-13 5 -16 10 -3 6 1 10 9 10 9 0 16 -4 16 -10z m165 0 c3 -5 1 -10 -4 -10 -6
0 -11 5 -11 10 0 6 2 10 4 10 3 0 8 -4 11 -10z m968 3 c4 -3 -3 -11 -16 -17
-12 -7 -24 -24 -27 -40 -3 -18 -14 -32 -27 -37 -21 -8 -23 -5 -23 27 0 28 5
36 25 44 14 5 25 14 25 20 0 11 33 14 43 3z m-1555 -12 c10 -6 9 -10 -7 -14
-21 -5 -36 5 -24 17 8 8 15 7 31 -3z m262 -19 c-6 -2 -10 -10 -10 -18 0 -8 -4
-14 -9 -14 -5 0 -4 13 2 30 7 20 14 25 19 17 4 -7 3 -13 -2 -15z m-200 -2 c0
-5 -7 -10 -16 -10 -8 0 -12 5 -9 10 3 6 10 10 16 10 5 0 9 -4 9 -10z m573 3
c-7 -2 -19 -2 -25 0 -7 3 -2 5 12 5 14 0 19 -2 13 -5z m651 1 c10 -4 16 -18
16 -35 0 -24 -4 -29 -24 -29 -31 0 -40 14 -21 30 7 6 11 18 8 26 -6 16 -2 17
21 8z m66 -2 c0 -13 -12 -22 -22 -16 -10 6 -1 24 13 24 5 0 9 -4 9 -8z m-1312
-49 c14 -11 13 -13 -9 -13 -21 0 -25 4 -23 23 4 38 6 43 11 22 3 -11 12 -26
21 -32z m382 23 c0 -3 -4 -8 -10 -11 -5 -3 -10 -1 -10 4 0 6 5 11 10 11 6 0
10 -2 10 -4z m190 -15 c0 -5 -9 -11 -20 -14 -11 -3 -19 -10 -18 -15 3 -10 -1
-12 -27 -12 -26 0 -16 19 18 34 39 17 47 19 47 7z m248 -9 c2 -7 -3 -12 -12
-12 -9 0 -16 7 -16 16 0 17 22 14 28 -4z m521 9 c9 -6 11 -15 6 -27 -5 -11 -8
-26 -7 -34 1 -8 -1 -10 -4 -4 -7 17 -44 5 -37 -12 6 -17 -2 -17 -50 0 -26 9
-34 15 -24 19 8 3 24 3 34 1 14 -4 23 4 36 30 18 38 23 41 46 27z m60 -32
c-23 -14 -39 -10 -39 10 0 11 8 21 18 23 22 5 39 -21 21 -33z m-1219 23 c0
-15 -22 -30 -36 -25 -8 3 -14 0 -14 -6 0 -6 -8 -11 -17 -11 -14 0 -12 6 11 25
29 25 56 33 56 17z m-1250 -32 c0 -5 -7 -7 -15 -4 -8 4 -15 8 -15 10 0 2 7 4
15 4 8 0 15 -4 15 -10z m1837 4 c-3 -3 -12 -4 -19 -1 -8 3 -5 6 6 6 11 1 17
-2 13 -5z m-1800 -10 c-3 -3 -12 -4 -19 -1 -8 3 -5 6 6 6 11 1 17 -2 13 -5z
m1328 -4 c-3 -5 -12 -10 -18 -10 -7 0 -6 4 3 10 19 12 23 12 15 0z m-222 -40
c-6 -22 -18 -26 -28 -10 -8 13 3 30 20 30 8 0 11 -7 8 -20z m1377 10 c0 -12
-28 -25 -36 -17 -9 9 6 27 22 27 8 0 14 -5 14 -10z m-1370 -55 c0 -8 -4 -15
-10 -15 -5 0 -10 7 -10 15 0 8 5 15 10 15 6 0 10 -7 10 -15z m237 9 c-3 -3
-12 -4 -19 -1 -8 3 -5 6 6 6 11 1 17 -2 13 -5z m843 -28 c0 -3 -4 -8 -10 -11
-5 -3 -10 -1 -10 4 0 6 5 11 10 11 6 0 10 -2 10 -4z m70 -26 c0 -5 -5 -10 -11
-10 -5 0 -7 5 -4 10 3 6 8 10 11 10 2 0 4 -4 4 -10z m38 -2 c-2 -6 -10 -14
-16 -16 -7 -2 -10 2 -6 12 7 18 28 22 22 4z m62 2 c0 -5 -4 -10 -10 -10 -5 0
-10 5 -10 10 0 6 5 10 10 10 6 0 10 -4 10 -10z m-1070 -20 c-8 -5 -19 -10 -25
-10 -5 0 -3 5 5 10 8 5 20 10 25 10 6 0 3 -5 -5 -10z m954 -107 c10 -11 -34
-31 -56 -25 -18 4 -18 5 -1 18 20 15 46 18 57 7z m-74 -63 c0 -5 -4 -10 -10
-10 -5 0 -10 5 -10 10 0 6 5 10 10 10 6 0 10 -4 10 -10z m-2023 -106 c-3 -3
-12 -4 -19 -1 -8 3 -5 6 6 6 11 1 17 -2 13 -5z m356 -204 c-12 -14 -20 -16
-30 -9 -18 15 -7 29 22 29 24 0 24 -1 8 -20z"/>
<path d="M5902 8155 c-9 -20 -9 -25 2 -25 17 0 30 30 18 42 -5 5 -14 -3 -20
-17z"/>
<path d="M5410 8040 c0 -5 5 -10 11 -10 5 0 7 5 4 10 -3 6 -8 10 -11 10 -2 0
-4 -4 -4 -10z"/>
<path d="M6115 7729 c-10 -15 3 -25 16 -12 7 7 7 13 1 17 -6 3 -14 1 -17 -5z"/>
<path d="M7524 7717 c-9 -24 6 -44 18 -22 7 11 6 21 -1 28 -7 7 -12 6 -17 -6z"/>
<path d="M7420 7695 c0 -5 5 -17 10 -25 5 -8 10 -10 10 -5 0 6 -5 17 -10 25
-5 8 -10 11 -10 5z"/>
<path d="M7855 7640 c-3 -5 -1 -10 4 -10 6 0 11 5 11 10 0 6 -2 10 -4 10 -3 0
-8 -4 -11 -10z"/>
<path d="M7721 7484 c0 -11 3 -14 6 -6 3 7 2 16 -1 19 -3 4 -6 -2 -5 -13z"/>
<path d="M7220 7310 c0 -5 5 -10 11 -10 5 0 7 5 4 10 -3 6 -8 10 -11 10 -2 0
-4 -4 -4 -10z"/>
<path d="M7175 7200 c3 -5 11 -10 16 -10 6 0 7 5 4 10 -3 6 -11 10 -16 10 -6
0 -7 -4 -4 -10z"/>
<path d="M7114 7156 c-3 -8 0 -23 6 -33 9 -14 10 -14 7 -2 -3 9 -1 21 5 27 6
6 6 12 -1 17 -6 3 -14 0 -17 -9z"/>
<path d="M7880 7090 c0 -5 5 -10 10 -10 6 0 10 5 10 10 0 6 -4 10 -10 10 -5 0
-10 -4 -10 -10z"/>
<path d="M6650 6995 c-7 -9 -10 -18 -6 -22 3 -3 6 -1 6 5 0 7 6 12 14 12 8 0
18 5 21 10 10 16 -21 11 -35 -5z"/>
<path d="M6481 6824 c0 -11 3 -14 6 -6 3 7 2 16 -1 19 -3 4 -6 -2 -5 -13z"/>
<path d="M6640 6825 c0 -8 5 -15 10 -15 6 0 10 7 10 15 0 8 -4 15 -10 15 -5 0
-10 -7 -10 -15z"/>
<path d="M6330 6809 c0 -5 5 -7 10 -4 6 3 10 8 10 11 0 2 -4 4 -10 4 -5 0 -10
-5 -10 -11z"/>
<path d="M6128 6793 c7 -3 16 -2 19 1 4 3 -2 6 -13 5 -11 0 -14 -3 -6 -6z"/>
<path d="M6930 6789 c0 -5 5 -7 10 -4 6 3 10 8 10 11 0 2 -4 4 -10 4 -5 0 -10
-5 -10 -11z"/>
<path d="M6070 6780 c-12 -8 -10 -10 8 -10 13 0 20 4 17 10 -7 12 -6 12 -25 0z"/>
<path d="M6653 6753 c-18 -7 -16 -23 2 -23 8 0 15 7 15 15 0 8 -1 15 -2 14 -2
0 -9 -3 -15 -6z"/>
<path d="M5915 6733 c-18 -10 -25 -18 -17 -21 18 -6 73 18 66 29 -7 12 -14 11
-49 -8z"/>
<path d="M6570 6730 c0 -5 5 -10 11 -10 5 0 7 5 4 10 -3 6 -8 10 -11 10 -2 0
-4 -4 -4 -10z"/>
<path d="M5815 6700 c-8 -13 25 -13 45 0 12 8 9 10 -12 10 -15 0 -30 -4 -33
-10z"/>
<path d="M6114 6699 c-3 -6 -1 -16 5 -22 8 -8 11 -5 11 11 0 24 -5 28 -16 11z"/>
<path d="M6580 6695 c-7 -9 -10 -18 -7 -22 8 -7 37 15 37 28 0 14 -16 11 -30
-6z"/>
<path d="M7660 6670 c0 -5 6 -10 12 -10 7 0 27 -17 45 -37 l33 -37 0 32 c0 25
-6 35 -30 47 -33 17 -60 20 -60 5z"/>
<path d="M6660 6650 c0 -5 5 -10 10 -10 6 0 10 5 10 10 0 6 -4 10 -10 10 -5 0
-10 -4 -10 -10z"/>
<path d="M7025 6640 c-3 -5 -1 -10 4 -10 6 0 11 5 11 10 0 6 -2 10 -4 10 -3 0
-8 -4 -11 -10z"/>
<path d="M5378 6613 c7 -3 16 -2 19 1 4 3 -2 6 -13 5 -11 0 -14 -3 -6 -6z"/>
<path d="M6510 6616 c0 -2 7 -6 15 -10 8 -3 15 -1 15 4 0 6 -7 10 -15 10 -8 0
-15 -2 -15 -4z"/>
<path d="M5385 6561 c-9 -15 22 -33 40 -24 14 8 12 11 -9 21 -14 6 -28 7 -31
3z"/>
<path d="M6710 6509 c0 -5 5 -7 10 -4 6 3 10 8 10 11 0 2 -4 4 -10 4 -5 0 -10
-5 -10 -11z"/>
<path d="M5305 6340 c-3 -5 -1 -10 4 -10 6 0 11 5 11 10 0 6 -2 10 -4 10 -3 0
-8 -4 -11 -10z"/>
<path d="M6605 6301 c-3 -5 -1 -12 5 -16 5 -3 10 1 10 9 0 18 -6 21 -15 7z"/>
<path d="M7580 6270 c0 -5 4 -10 9 -10 6 0 13 5 16 10 3 6 -1 10 -9 10 -9 0
-16 -4 -16 -10z"/>
<path d="M5252 6258 c-15 -15 -16 -48 -2 -48 6 0 10 5 10 10 0 6 7 10 15 10
17 0 18 2 9 24 -7 19 -16 20 -32 4z"/>
<path d="M6290 6202 c0 -5 7 -17 15 -28 8 -10 15 -29 15 -41 0 -13 5 -23 10
-23 15 0 12 37 -5 70 -14 28 -35 41 -35 22z"/>
<path d="M5255 6166 c11 -8 23 -12 28 -9 13 8 -3 23 -26 23 -20 0 -20 0 -2
-14z"/>
<path d="M5770 6137 c0 -13 -3 -27 -7 -31 -10 -10 -13 -85 -3 -91 5 -3 11 -1
15 5 3 5 19 10 35 10 30 0 35 19 11 43 -9 9 -14 9 -21 -3 -8 -12 -10 -11 -10
6 0 28 21 45 47 38 37 -10 36 16 -1 31 -50 21 -66 19 -66 -8z"/>
<path d="M5721 6134 c0 -11 3 -14 6 -6 3 7 2 16 -1 19 -3 4 -6 -2 -5 -13z"/>
<path d="M5204 6131 c3 -5 17 -8 31 -8 14 0 28 3 31 8 3 5 -11 9 -31 9 -20 0
-34 -4 -31 -9z"/>
<path d="M5910 6090 c-27 -27 -25 -37 11 -45 38 -9 41 -6 33 33 -8 37 -16 40
-44 12z"/>
<path d="M6270 6100 c0 -5 5 -10 10 -10 6 0 10 5 10 10 0 6 -4 10 -10 10 -5 0
-10 -4 -10 -10z"/>
<path d="M7615 6090 c-3 -5 1 -10 9 -10 9 0 16 5 16 10 0 6 -4 10 -9 10 -6 0
-13 -4 -16 -10z"/>
<path d="M5855 6080 c-8 -13 5 -13 25 0 13 8 13 10 -2 10 -9 0 -20 -4 -23 -10z"/>
<path d="M6360 6086 c0 -2 9 -6 20 -9 11 -3 18 -1 14 4 -5 9 -34 13 -34 5z"/>
<path d="M6197 6060 c3 -11 11 -20 18 -20 7 0 19 -10 27 -22 17 -25 38 -17 38
14 0 16 -5 19 -25 16 -14 -3 -25 -2 -25 3 0 5 -9 13 -19 18 -16 9 -18 8 -14
-9z"/>
<path d="M5208 6043 c6 -2 18 -2 25 0 6 3 1 5 -13 5 -14 0 -19 -2 -12 -5z"/>
<path d="M5345 6040 c3 -5 16 -10 28 -9 21 0 21 1 2 9 -28 12 -37 12 -30 0z"/>
<path d="M6333 6012 c-13 -2 -23 -7 -23 -11 0 -4 14 -6 30 -3 17 2 37 -1 45
-8 8 -7 15 -8 15 -3 0 14 -41 29 -67 25z"/>
<path d="M5757 5993 c-4 -3 -7 -11 -7 -17 0 -6 5 -5 12 2 6 6 9 14 7 17 -3 3
-9 2 -12 -2z"/>
<path d="M5304 5955 c-2 -25 10 -33 20 -16 7 10 -3 41 -13 41 -3 0 -7 -11 -7
-25z"/>
<path d="M5382 5924 c1 -9 9 -19 16 -22 9 -3 13 2 10 14 -1 9 -9 19 -16 22 -9
3 -13 -2 -10 -14z"/>
<path d="M6247 5854 c-3 -5 -2 -25 3 -44 4 -19 8 -27 9 -17 1 9 6 17 11 17 14
0 13 13 -3 35 -8 10 -17 14 -20 9z"/>
<path d="M5664 5818 c-12 -19 -11 -58 2 -58 6 0 11 6 12 13 0 6 4 22 7 35 8
23 -8 31 -21 10z"/>
<path d="M5618 5814 c-4 -3 -4 -12 -2 -19 3 -7 1 -16 -5 -20 -13 -7 -15 -45
-3 -45 17 0 33 45 25 68 -5 13 -12 20 -15 16z"/>
<path d="M6286 5781 c-4 -7 -5 -15 -2 -18 9 -9 19 4 14 18 -4 11 -6 11 -12 0z"/>
<path d="M6321 5704 c0 -11 3 -14 6 -6 3 7 2 16 -1 19 -3 4 -6 -2 -5 -13z"/>
<path d="M6330 5656 c0 -8 5 -18 10 -21 6 -3 10 3 10 14 0 12 -4 21 -10 21 -5
0 -10 -6 -10 -14z"/>
<path d="M6463 5643 c-20 -8 -15 -23 7 -23 11 0 20 7 20 15 0 15 -6 17 -27 8z"/>
<path d="M6320 5599 c0 -5 5 -7 10 -4 6 3 10 8 10 11 0 2 -4 4 -10 4 -5 0 -10
-5 -10 -11z"/>
<path d="M6420 5570 c0 -5 7 -10 16 -10 8 0 12 5 9 10 -3 6 -10 10 -16 10 -5
0 -9 -4 -9 -10z"/>
<path d="M6744 5563 c3 -8 6 -26 6 -39 0 -29 11 -31 27 -4 16 24 8 46 -18 53
-15 4 -19 2 -15 -10z"/>
<path d="M7340 5551 c0 -6 5 -13 10 -16 6 -3 10 1 10 9 0 9 -4 16 -10 16 -5 0
-10 -4 -10 -9z"/>
<path d="M6687 5529 c-3 -13 -1 -19 6 -16 15 5 22 37 9 37 -5 0 -12 -9 -15
-21z"/>
<path d="M6535 5529 c-4 -5 -4 -21 -1 -35 5 -17 2 -26 -9 -30 -18 -7 -20 -24
-2 -24 22 1 49 49 43 76 -7 25 -20 31 -31 13z"/>
<path d="M6370 5509 c0 -11 5 -17 10 -14 6 3 10 13 10 21 0 8 -4 14 -10 14 -5
0 -10 -9 -10 -21z"/>
<path d="M6525 5389 c-11 -17 1 -21 15 -4 8 9 8 15 2 15 -6 0 -14 -5 -17 -11z"/>
<path d="M6385 5300 c-4 -6 -15 -8 -25 -5 -14 4 -25 -4 -44 -31 -33 -49 -21
-67 15 -23 21 25 29 29 29 17 0 -30 27 -20 39 13 6 18 11 34 11 35 0 8 -19 3
-25 -6z"/>
<path d="M6080 5470 c-11 -11 -24 -20 -28 -20 -14 0 -42 -35 -42 -53 0 -9 5
-17 10 -17 6 0 10 5 10 10 0 6 8 10 17 10 19 0 100 38 108 50 10 17 -18 23
-30 7 -7 -10 -21 -17 -31 -17 -17 1 -17 2 4 19 12 11 22 22 22 25 0 13 -21 5
-40 -14z"/>
<path d="M5384 5425 c-18 -14 -17 -15 10 -9 26 6 27 5 17 -14 -15 -29 -14 -34
7 -23 45 26 46 29 33 45 -17 20 -42 20 -67 1z"/>
<path d="M5280 5368 c-25 -11 -46 -24 -48 -29 -2 -5 -15 -9 -29 -9 -24 0 -25
-1 -11 -17 9 -10 13 -24 11 -30 -3 -8 4 -13 18 -13 21 0 21 1 5 19 -20 21 -15
27 57 60 26 13 47 27 47 32 0 11 3 12 -50 -13z"/>
<path d="M5255 5299 c-9 -14 -2 -20 14 -10 8 6 9 11 3 15 -6 3 -14 1 -17 -5z"/>
<path d="M5150 5240 c0 -5 7 -10 15 -10 8 0 15 5 15 10 0 6 -7 10 -15 10 -8 0
-15 -4 -15 -10z"/>
<path d="M5927 5043 c-4 -3 -7 -13 -7 -22 1 -13 3 -13 11 2 11 19 8 33 -4 20z"/>
<path d="M7940 4590 c0 -5 5 -10 11 -10 5 0 7 5 4 10 -3 6 -8 10 -11 10 -2 0
-4 -4 -4 -10z"/>
<path d="M7946 4516 c7 -19 38 -22 32 -3 -3 6 -12 13 -21 15 -12 2 -15 -1 -11
-12z"/>
<path d="M7871 4434 c0 -11 3 -14 6 -6 3 7 2 16 -1 19 -3 4 -6 -2 -5 -13z"/>
<path d="M7910 4415 c0 -8 5 -15 10 -15 6 0 10 7 10 15 0 8 -4 15 -10 15 -5 0
-10 -7 -10 -15z"/>
<path d="M8014 4359 c-2 -4 1 -11 7 -14 5 -4 8 -14 5 -22 -4 -9 -1 -13 6 -11
7 3 15 15 19 29 5 20 2 25 -13 25 -11 0 -21 -4 -24 -7z"/>
<path d="M7832 4335 c0 -16 2 -22 5 -12 2 9 2 23 0 30 -3 6 -5 -1 -5 -18z"/>
<path d="M7750 4324 c0 -8 5 -12 10 -9 6 4 8 11 5 16 -9 14 -15 11 -15 -7z"/>
<path d="M7790 4300 c0 -5 5 -10 11 -10 5 0 7 5 4 10 -3 6 -8 10 -11 10 -2 0
-4 -4 -4 -10z"/>
<path d="M7837 4255 c-4 -8 -2 -17 3 -20 6 -4 10 3 10 14 0 25 -6 27 -13 6z"/>
<path d="M7677 4224 c3 -7 11 -10 19 -7 20 8 17 22 -5 20 -10 0 -17 -7 -14
-13z"/>
<path d="M7716 4155 c4 -8 8 -15 10 -15 2 0 4 7 4 15 0 8 -4 15 -10 15 -5 0
-7 -7 -4 -15z"/>
<path d="M7670 4150 c0 -5 5 -10 10 -10 6 0 10 5 10 10 0 6 -4 10 -10 10 -5 0
-10 -4 -10 -10z"/>
<path d="M7742 4118 c-18 -18 -14 -38 8 -38 13 0 20 7 20 19 0 25 -13 34 -28
19z"/>
<path d="M7874 4103 c-6 -10 -9 -24 -6 -31 2 -9 9 -4 18 13 16 31 17 35 6 35
-4 0 -12 -8 -18 -17z"/>
<path d="M7700 4016 c0 -9 5 -16 10 -16 6 0 10 4 10 9 0 6 -4 13 -10 16 -5 3
-10 -1 -10 -9z"/>
<path d="M7881 3948 c-5 -13 -7 -24 -6 -26 7 -8 45 20 45 33 0 23 -30 17 -39
-7z"/>
<path d="M7531 3936 c-10 -12 -8 -13 8 -9 12 3 21 9 21 14 0 14 -16 11 -29 -5z"/>
<path d="M7780 3920 c20 -13 33 -13 25 0 -3 6 -14 10 -23 10 -15 0 -15 -2 -2
-10z"/>
<path d="M7557 3896 c-6 -14 0 -26 14 -26 3 0 9 9 12 20 6 23 -18 28 -26 6z"/>
<path d="M7790 3889 c0 -5 5 -7 10 -4 6 3 10 8 10 11 0 2 -4 4 -10 4 -5 0 -10
-5 -10 -11z"/>
<path d="M7575 3800 c-3 -5 1 -10 9 -10 9 0 16 5 16 10 0 6 -4 10 -9 10 -6 0
-13 -4 -16 -10z"/>
<path d="M7446 3685 c-4 -10 1 -15 14 -15 13 0 18 5 14 15 -4 8 -10 15 -14 15
-4 0 -10 -7 -14 -15z"/>
<path d="M7803 3673 c-25 -9 -13 -23 15 -17 37 9 52 24 22 23 -14 0 -31 -3
-37 -6z"/>
<path d="M7430 3630 c0 -5 7 -10 16 -10 8 0 12 5 9 10 -3 6 -10 10 -16 10 -5
0 -9 -4 -9 -10z"/>
<path d="M7820 3600 c-9 -6 -10 -10 -3 -10 6 0 15 5 18 10 8 12 4 12 -15 0z"/>
<path d="M7541 3453 c0 -16 3 -22 6 -13 3 8 10 21 16 28 7 8 5 12 -7 12 -11 0
-16 -8 -15 -27z"/>
<path d="M7680 3460 c0 -13 18 -22 24 -11 3 5 -1 11 -9 15 -8 3 -15 1 -15 -4z"/>
<path d="M7309 3447 c6 -8 8 -17 4 -20 -3 -4 6 -7 20 -7 l27 0 -20 20 c-23 23
-50 29 -31 7z"/>
<path d="M7250 3430 c19 -13 30 -13 30 0 0 6 -10 10 -22 10 -19 0 -20 -2 -8
-10z"/>
<path d="M7460 3406 c0 -9 7 -16 16 -16 17 0 14 22 -4 28 -7 2 -12 -3 -12 -12z"/>
<path d="M7774 3403 c4 -9 1 -20 -6 -25 -10 -6 -8 -8 5 -8 9 0 17 2 17 4 0 2
3 11 6 19 3 8 -2 17 -12 21 -12 5 -15 2 -10 -11z"/>
<path d="M7585 3400 c3 -5 10 -10 16 -10 5 0 9 5 9 10 0 6 -7 10 -16 10 -8 0
-12 -4 -9 -10z"/>
<path d="M7320 3390 c0 -13 11 -13 30 0 12 8 11 10 -7 10 -13 0 -23 -4 -23
-10z"/>
<path d="M7430 3384 c0 -12 -7 -15 -25 -12 -14 3 -28 1 -31 -4 -10 -16 2 -20
38 -13 24 5 34 12 35 26 1 10 -2 19 -8 19 -5 0 -9 -7 -9 -16z"/>
<path d="M7540 3380 c0 -5 7 -10 16 -10 8 0 12 5 9 10 -3 6 -10 10 -16 10 -5
0 -9 -4 -9 -10z"/>
<path d="M7320 3334 c0 -8 5 -12 10 -9 6 4 8 11 5 16 -9 14 -15 11 -15 -7z"/>
<path d="M7670 3330 c0 -5 5 -10 10 -10 6 0 10 5 10 10 0 6 -4 10 -10 10 -5 0
-10 -4 -10 -10z"/>
<path d="M7474 3314 c-4 -10 -9 -22 -11 -26 -2 -4 2 -10 9 -14 7 -4 10 -4 6 1
-4 4 -3 16 3 27 6 11 8 22 5 25 -3 3 -9 -3 -12 -13z"/>
<path d="M7179 3263 c-12 -15 -12 -16 3 -10 9 3 18 1 21 -6 2 -8 5 -8 10 0 4
6 1 16 -7 22 -10 9 -17 7 -27 -6z"/>
<path d="M7430 3250 c0 -5 5 -10 11 -10 5 0 7 5 4 10 -3 6 -8 10 -11 10 -2 0
-4 -4 -4 -10z"/>
<path d="M7347 3233 c-12 -12 -7 -21 15 -26 24 -7 51 10 42 24 -6 10 -48 12
-57 2z"/>
<path d="M7670 3220 c0 -5 5 -10 10 -10 6 0 10 5 10 10 0 6 -4 10 -10 10 -5 0
-10 -4 -10 -10z"/>
<path d="M7706 3203 c-6 -14 -5 -15 5 -6 7 7 10 15 7 18 -3 3 -9 -2 -12 -12z"/>
<path d="M7670 3125 c0 -14 5 -25 11 -25 6 0 9 9 6 20 -3 10 0 21 7 24 6 2 3
5 -6 5 -13 1 -18 -7 -18 -24z"/>
<path d="M7196 3035 c-3 -8 -1 -15 4 -15 13 0 22 18 11 24 -5 3 -11 -1 -15 -9z"/>
<path d="M7341 3014 c0 -11 3 -14 6 -6 3 7 2 16 -1 19 -3 4 -6 -2 -5 -13z"/>
<path d="M7455 3020 c-3 -5 -1 -10 4 -10 6 0 11 5 11 10 0 6 -2 10 -4 10 -3 0
-8 -4 -11 -10z"/>
<path d="M7255 2940 c3 -5 10 -10 16 -10 5 0 9 5 9 10 0 6 -7 10 -16 10 -8 0
-12 -4 -9 -10z"/>
<path d="M7460 2939 c0 -5 5 -7 10 -4 6 3 10 8 10 11 0 2 -4 4 -10 4 -5 0 -10
-5 -10 -11z"/>
<path d="M7515 2890 c3 -5 8 -10 11 -10 2 0 4 5 4 10 0 6 -5 10 -11 10 -5 0
-7 -4 -4 -10z"/>
<path d="M7310 2860 c0 -5 5 -10 10 -10 6 0 10 5 10 10 0 6 -4 10 -10 10 -5 0
-10 -4 -10 -10z"/>
<path d="M7440 2860 c-13 -8 -12 -10 3 -10 9 0 17 5 17 10 0 12 -1 12 -20 0z"/>
<path d="M7295 2770 c3 -5 10 -10 16 -10 5 0 9 5 9 10 0 6 -7 10 -16 10 -8 0
-12 -4 -9 -10z"/>
<path d="M7462 2752 c-18 -15 -32 -35 -32 -45 0 -15 4 -14 27 8 15 14 31 25
35 25 4 0 12 9 18 20 16 29 -8 26 -48 -8z"/>
<path d="M7385 2690 c-3 -5 -2 -10 4 -10 5 0 13 5 16 10 3 6 2 10 -4 10 -5 0
-13 -4 -16 -10z"/>
<path d="M7496 2675 c-11 -8 -21 -25 -23 -37 l-4 -23 17 23 c13 19 23 23 45
18 27 -5 28 -4 17 14 -15 24 -26 25 -52 5z"/>
<path d="M7260 2660 c0 -5 5 -10 10 -10 6 0 10 5 10 10 0 6 -4 10 -10 10 -5 0
-10 -4 -10 -10z"/>
<path d="M7420 2606 c0 -8 5 -18 10 -21 6 -3 10 3 10 14 0 12 -4 21 -10 21 -5
0 -10 -6 -10 -14z"/>
<path d="M7219 2578 c-9 -30 -5 -38 17 -38 22 0 23 3 14 20 -9 16 -28 27 -31
18z"/>
<path d="M7336 2544 c-4 -9 -4 -19 -2 -21 8 -8 60 13 64 25 6 19 -55 15 -62
-4z"/>
<path d="M7285 2530 c3 -5 8 -10 11 -10 2 0 4 5 4 10 0 6 -5 10 -11 10 -5 0
-7 -4 -4 -10z"/>
<path d="M5240 2504 c0 -18 -6 -28 -21 -31 -15 -4 -17 -8 -8 -14 7 -4 22 0 35
9 26 19 32 62 9 62 -9 0 -15 -10 -15 -26z"/>
<path d="M5052 2448 c-7 -7 -18 -13 -24 -13 -6 0 -13 -6 -16 -13 -3 -9 4 -11
24 -8 35 7 52 22 38 36 -7 7 -14 6 -22 -2z"/>
<path d="M4940 2435 c0 -8 2 -15 4 -15 2 0 11 -3 20 -6 23 -9 20 9 -4 24 -17
10 -20 10 -20 -3z"/>
<path d="M5338 2433 c-24 -6 -23 -23 2 -23 11 0 20 7 20 15 0 8 -1 14 -2 14
-2 -1 -11 -3 -20 -6z"/>
<path d="M5495 2420 c-3 -5 1 -10 10 -10 9 0 13 5 10 10 -3 6 -8 10 -10 10 -2
0 -7 -4 -10 -10z"/>
<path d="M5535 2410 c4 -13 2 -20 -6 -20 -7 0 -10 -2 -7 -5 7 -7 58 16 58 26
0 7 -25 19 -41 19 -6 0 -7 -9 -4 -20z"/>
<path d="M5639 2418 c-1 -7 -1 -17 0 -21 1 -5 -8 -6 -19 -2 -14 4 -20 2 -20
-9 0 -23 16 -28 55 -17 21 5 35 6 35 0 0 -5 7 -9 15 -9 21 0 19 -37 -2 -44
-10 -3 -1 -4 19 -1 22 2 38 -1 41 -8 2 -6 6 -3 10 6 3 9 2 17 -3 17 -6 0 -26
18 -46 40 -20 22 -43 40 -50 40 -8 0 -14 5 -14 10 0 15 -20 12 -21 -2z"/>
<path d="M5150 2410 c0 -5 5 -10 10 -10 6 0 10 5 10 10 0 6 -4 10 -10 10 -5 0
-10 -4 -10 -10z"/>
<path d="M5455 2410 c-3 -5 1 -10 10 -10 9 0 13 5 10 10 -3 6 -8 10 -10 10 -2
0 -7 -4 -10 -10z"/>
<path d="M5740 2395 c0 -8 5 -15 10 -15 6 0 10 7 10 15 0 8 -4 15 -10 15 -5 0
-10 -7 -10 -15z"/>
<path d="M5475 2377 c-4 -10 -5 -21 -1 -24 10 -10 18 4 13 24 -4 17 -4 17 -12
0z"/>
<path d="M5553 2363 l-33 -4 27 -23 27 -24 13 25 c15 29 16 34 6 31 -5 0 -23
-3 -40 -5z"/>
<path d="M5025 2339 c-4 -6 -4 -13 -1 -16 8 -8 36 5 36 17 0 13 -27 13 -35 -1z"/>
<path d="M5670 2332 c0 -7 -10 -12 -22 -12 -17 0 -19 -3 -10 -12 10 -9 16 -8
29 5 9 9 14 20 10 23 -4 4 -7 2 -7 -4z"/>
<path d="M5530 2310 c0 -5 5 -10 10 -10 6 0 10 5 10 10 0 6 -4 10 -10 10 -5 0
-10 -4 -10 -10z"/>
<path d="M5395 2300 c4 -6 11 -8 16 -5 14 9 11 15 -7 15 -8 0 -12 -5 -9 -10z"/>
<path d="M5802 2275 c-1 -21 3 -33 8 -30 12 8 13 65 2 65 -5 0 -9 -16 -10 -35z"/>
<path d="M5858 2283 c-27 -7 -21 -23 7 -23 14 0 25 4 25 9 0 13 -12 18 -32 14z"/>
<path d="M5757 2263 c-7 -11 10 -40 18 -31 4 4 3 14 -3 24 -5 9 -12 12 -15 7z"/>
<path d="M5708 2254 c-4 -5 0 -18 8 -29 15 -20 17 -12 5 19 -4 11 -10 15 -13
10z"/>
<path d="M5530 2234 c0 -8 5 -12 10 -9 6 3 10 10 10 16 0 5 -4 9 -10 9 -5 0
-10 -7 -10 -16z"/>
<path d="M5585 2240 c-9 -14 3 -30 23 -30 15 1 15 2 -1 11 -9 6 -15 14 -12 20
4 5 4 9 1 9 -3 0 -8 -4 -11 -10z"/>
<path d="M5847 2226 c-11 -12 -17 -12 -28 -3 -7 7 -5 2 4 -9 17 -20 20 -21 48
-7 16 8 27 19 24 24 -9 13 -32 11 -48 -5z"/>
<path d="M5660 2210 c0 -6 7 -10 15 -10 8 0 15 2 15 4 0 2 -7 6 -15 10 -8 3
-15 1 -15 -4z"/>
<path d="M5710 2180 c0 -5 5 -10 10 -10 6 0 10 5 10 10 0 6 -4 10 -10 10 -5 0
-10 -4 -10 -10z"/>
<path d="M5498 2163 c7 -3 16 -2 19 1 4 3 -2 6 -13 5 -11 0 -14 -3 -6 -6z"/>
<path d="M5665 2160 c-3 -5 1 -10 10 -10 9 0 13 5 10 10 -3 6 -8 10 -10 10 -2
0 -7 -4 -10 -10z"/>
<path d="M5825 2160 c3 -5 8 -10 11 -10 2 0 4 5 4 10 0 6 -5 10 -11 10 -5 0
-7 -4 -4 -10z"/>
<path d="M5440 2150 c0 -5 5 -10 11 -10 5 0 7 5 4 10 -3 6 -8 10 -11 10 -2 0
-4 -4 -4 -10z"/>
<path d="M5755 2150 c-3 -5 -1 -10 4 -10 6 0 11 5 11 10 0 6 -2 10 -4 10 -3 0
-8 -4 -11 -10z"/>
<path d="M5602 2133 c4 -20 30 -28 56 -18 16 6 15 8 -2 21 -28 20 -58 18 -54
-3z"/>
<path d="M5880 2123 c1 -24 2 -26 11 -10 6 9 14 15 20 12 5 -4 9 -2 9 3 0 8
-22 22 -36 22 -2 0 -4 -12 -4 -27z"/>
<path d="M5071 2114 c0 -11 3 -14 6 -6 3 7 2 16 -1 19 -3 4 -6 -2 -5 -13z"/>
<path d="M5712 2104 c-1 -15 2 -22 8 -19 12 7 13 32 2 39 -4 2 -9 -7 -10 -20z"/>
<path d="M5527 2073 c-10 -9 -9 -23 2 -23 5 0 11 7 15 15 5 15 -5 20 -17 8z"/>
<path d="M5615 2060 c-3 -5 -1 -10 4 -10 6 0 11 5 11 10 0 6 -2 10 -4 10 -3 0
-8 -4 -11 -10z"/>
<path d="M5150 1920 c-8 -5 -10 -10 -5 -10 6 0 17 5 25 10 8 5 11 10 5 10 -5
0 -17 -5 -25 -10z"/>
<path d="M5222 1852 c-12 -2 -20 -7 -17 -12 3 -5 13 -6 21 -3 9 3 20 0 24 -7
5 -7 10 -8 14 -2 9 14 -15 29 -42 24z"/>
<path d="M5326 1819 c20 -22 34 -24 34 -5 0 7 -11 16 -25 19 -25 4 -25 4 -9
-14z"/>
<path d="M5390 1795 c0 -10 7 -15 18 -13 21 4 19 22 -2 26 -10 2 -16 -3 -16
-13z"/>
<path d="M5630 1801 c0 -6 5 -13 10 -16 6 -3 10 1 10 9 0 9 -4 16 -10 16 -5 0
-10 -4 -10 -9z"/>
<path d="M5695 1790 c3 -5 10 -10 16 -10 5 0 9 5 9 10 0 6 -7 10 -16 10 -8 0
-12 -4 -9 -10z"/>
</g>
</svg>
